<svg xmlns="http://www.w3.org/2000/svg" xmlns:xlink="http://www.w3.org/1999/xlink" viewBox="0 0 286.2 67.56"><defs><style>.cls-1{fill:#e8b704;}.cls-2{fill:#025d99;}.cls-3{fill:url(#linear-gradient);}.cls-4{stroke:#d9ba42;stroke-miterlimit:10;stroke-width:0.06px;fill:url(#linear-gradient-2);}.cls-5{font-size:14.08px;fill:#fff;font-family:SVN-ArialItalic, SVN-Arial;font-style:italic;}</style><linearGradient id="linear-gradient" x1="43.84" y1="27.1" x2="44.24" y2="60.06" gradientUnits="userSpaceOnUse"><stop offset="0" stop-color="#e8b601"/><stop offset="0.17" stop-color="#e8b705"/><stop offset="0.33" stop-color="#e8bb10"/><stop offset="0.49" stop-color="#e8c123"/><stop offset="0.65" stop-color="#e9ca3e"/><stop offset="0.71" stop-color="#e9ce4b"/><stop offset="0.81" stop-color="#e9cd48"/><stop offset="0.87" stop-color="#e9ca40"/><stop offset="0.92" stop-color="#e9c632"/><stop offset="0.96" stop-color="#e8bf1e"/><stop offset="1" stop-color="#e8b704"/><stop offset="1" stop-color="#e8b601"/></linearGradient><linearGradient id="linear-gradient-2" x1="43.73" y1="-14.24" x2="47.82" y2="54.36" gradientUnits="userSpaceOnUse"><stop offset="0" stop-color="#005d99"/><stop offset="0.17" stop-color="#03629d"/><stop offset="0.37" stop-color="#0c72aa"/><stop offset="0.6" stop-color="#1c8bbf"/><stop offset="0.85" stop-color="#31aedc"/><stop offset="1" stop-color="#40c8f2"/></linearGradient></defs><title>Asset 1</title><g id="Layer_2" data-name="Layer 2"><g id="Logo"><path class="cls-1" d="M211.64,7.39,208.8,5.65c-.23-.15-.5-.23-.64-.49,0-.23.25-.3.41-.4l1.86-1.22c.52-.33.52-.33,1,.12l1.43,1.41c.61.77,1.36,1.41,2,2.13.38.4.38.4-.06.68-1.09.7-1.09.69-2.2,0C212.29,7.73,212,7.56,211.64,7.39Z"/><path class="cls-2" d="M132.53,18.61a3.6,3.6,0,0,0,.33-.9,6.81,6.81,0,0,1,.83-1.92,1,1,0,0,0,.2-.77,1.08,1.08,0,0,0,.11-.18c0-.05-.06-.06-.1,0a4.05,4.05,0,0,0,.62-1.29c.26-.58.54-1.16.8-1.75a18.4,18.4,0,0,0,3.48.07c.69-.08.91.39,1.13.92.88,2.15,1.76,4.31,2.67,6.45q2.94,7,5.91,13.91c.86,2,1.73,4.1,2.58,6.15.32.76.31.78-.49.77a7.72,7.72,0,0,1-4.72-1.7A10,10,0,0,1,142.75,34a39.39,39.39,0,0,0-1.58-3.65,10.67,10.67,0,0,0-.67-1.59c0-.15-.15-.21-.21-.32a9.89,9.89,0,0,0-.73-2.19,17.9,17.9,0,0,1-.8-2.61.66.66,0,0,0-.21-.38,3.28,3.28,0,0,0-.2-.31,10.3,10.3,0,0,0-.84-2.66h0c-.48.32-.48.88-.65,1.34-.83,2.22-1.56,4.48-2.43,6.7-.69,1.78-1.44,3.53-2.07,5.34a14.43,14.43,0,0,1-1,2.34A7.84,7.84,0,0,1,128,39a35.73,35.73,0,0,1-4.1,1c-.16,0-.29-.14-.19-.31"/><path class="cls-1" d="M279.26,30.84a2.5,2.5,0,0,0-.88-.07h-7.06c-.73,0-.73,0-.71-.75a5.51,5.51,0,0,1,.24-1.46,3.81,3.81,0,0,1,4-2.92c2.72,0,5.44,0,8.17,0h2.53c.64,0,.66,0,.66.68a13.68,13.68,0,0,1-4.41,10.28,14.68,14.68,0,0,1-7.85,3.94,15.16,15.16,0,0,1-16-7.66,14.64,14.64,0,0,1,3-17.43,15.22,15.22,0,0,1,21.19.65,12.21,12.21,0,0,1,2.44,3.7c.27.61.23.69-.42.69H279a.89.89,0,0,1-.8-.41c-4-5.19-12.46-4.32-15.46,1.87a9.48,9.48,0,0,0,7.68,13.48,9.14,9.14,0,0,0,8.37-3.7A2.2,2.2,0,0,0,279.26,30.84Z"/><path class="cls-1" d="M247.76,31.69a2.13,2.13,0,0,0,.07-.85c0-4.61,0-9.21,0-13.82a4.44,4.44,0,0,1,3.33-4.53,10.45,10.45,0,0,1,1.66-.36c.29-.05.43,0,.42.34,0,.15,0,.29,0,.44V39.43c0,.65,0,.66-.67.66-1.53,0-3.07,0-4.6,0a1,1,0,0,1-1-.62c-2.85-5-5.73-10-8.59-15-.65-1.14-1.3-2.28-2-3.42a1.88,1.88,0,0,0-.51-.68v.82q0,5.94,0,11.89c0,.71,0,1.43-.05,2.15a4.37,4.37,0,0,1-2,3.54A7.8,7.8,0,0,1,231,40c-.49.11-.53.06-.55-.47,0-.15,0-.3,0-.45V13c0-1-.15-1,.95-1,1.41,0,2.82,0,4.23,0a1.12,1.12,0,0,1,1.18.66c3.47,6.16,7,12.31,10.48,18.47A1.42,1.42,0,0,0,247.76,31.69Z"/><path class="cls-1" d="M227.57,40a3.8,3.8,0,0,1-1.61-.06,8.37,8.37,0,0,1-6-4.4,38.49,38.49,0,0,1-1.63-3.66c-1.59-3.66-2.85-7.44-4.15-11.21-.08-.22-.17-.44-.26-.67-.26.13-.26.35-.31.52-1.35,3.91-2.86,7.76-4.32,11.62a30.37,30.37,0,0,1-1.23,2.94A8.55,8.55,0,0,1,200.53,40a1.33,1.33,0,0,1-.28,0c-.1-.24.05-.41.12-.58Q205.92,26,211.47,12.6c.19-.46.4-.67.92-.64q1.41.06,2.82,0a.89.89,0,0,1,1,.67q2.73,6.54,5.49,13.07,2.83,6.75,5.67,13.49C227.45,39.43,227.64,39.66,227.57,40Z"/><path class="cls-1" d="M196.52,17.58a17.77,17.77,0,0,1,1.17-2.14,8.44,8.44,0,0,1,4.09-3l.63-.23a.29.29,0,0,0,.3-.09,7.8,7.8,0,0,1,2-.16c0,.39-.25.67-.28,1a.36.36,0,0,0-.12.31.34.34,0,0,0-.13.3c-.57,1.13-1,2.32-1.47,3.48q-4.56,11.11-9.1,22.26a.84.84,0,0,1-.93.62c-.94,0-1.88,0-2.82,0-.67,0-.68,0-.94-.58q-1.87-4.39-3.76-8.8a3.09,3.09,0,0,0-.38-.8,3.57,3.57,0,0,0-.45-1,3.07,3.07,0,0,0-.45-1.05c-.51-1.44-1.17-2.83-1.76-4.24-1.52-3.58-3.05-7.14-4.58-10.71,0-.12-.11-.23-.15-.34-.12-.36-.07-.44.32-.44a7.91,7.91,0,0,1,3.11.65,8.52,8.52,0,0,1,4.22,3.9c.75,1.37,1.28,2.84,1.89,4.27s1.11,2.64,1.66,4a1.47,1.47,0,0,0,.28.75,1.94,1.94,0,0,0,.31.89,2.29,2.29,0,0,0,.07.36L191,31.58c0,.11,0,.29.24.31a2.65,2.65,0,0,0,.31-.76c.69-1.93,1.33-3.87,2.07-5.79.57-1.49,1.1-3,1.65-4.51a8.06,8.06,0,0,0,.6-1.64l.07-.27a1.3,1.3,0,0,0,.25-.62A1.48,1.48,0,0,0,196.52,17.58Z"/><path class="cls-2" d="M113.57,39.66a7.91,7.91,0,0,0-1.75.22c-.79.1-1.57.13-2.36.18-2.39.18-4.79.07-7.18.1h-.52c-.28,0-.42-.14-.4-.41a19,19,0,0,1,.1-3.11,3.61,3.61,0,0,0,0-.66V24.48c0-.54,0-.55.52-.55,2.2,0,4.4-.06,6.6,0A2.94,2.94,0,0,1,111.45,26c.17.49.27,1,.42,1.48a.59.59,0,0,0,0,.45v.2a.15.15,0,0,0-.09.1c-1.46,0-2.92,0-4.38,0-.53,0-.54,0-.55.53v5.42c0,.53,0,.54.54.54a18.27,18.27,0,0,0,4-.24,7.51,7.51,0,0,0,3.19-1.34,8.29,8.29,0,0,0,2-1.76,7.46,7.46,0,0,0,1.19-2.31,1.87,1.87,0,0,1,.15-.32.56.56,0,0,0,.15-.52,3.23,3.23,0,0,0,.21-1.51.18.18,0,0,0,.06-.27,9.07,9.07,0,0,0-.23-2.38.74.74,0,0,0-.19-.51,1.1,1.1,0,0,0-.27-.83c0-.15-.16-.18-.2-.3a7.38,7.38,0,0,0-4.32-4.26c-.5-.21-1-.35-1.55-.52a.65.65,0,0,0-.67-.12,5.24,5.24,0,0,0-1.8-.26,35.42,35.42,0,0,1-4.12-.21,2,2,0,0,1-1.3-.55,3.11,3.11,0,0,0-.55-.37A4.17,4.17,0,0,1,101.58,14c-.15-.46-.1-1-.25-1.45a.26.26,0,0,0,0-.29c.08-.26.26-.32.52-.32,2.12,0,4.26-.06,6.38,0a24.63,24.63,0,0,1,5,.5,13.64,13.64,0,0,1,5.42,2.39,13.07,13.07,0,0,1,4.07,5.44,16.05,16.05,0,0,1,1,3.45,14.72,14.72,0,0,1-2.33,10.64,12.82,12.82,0,0,1-4.45,4c-.58.31-1.18.57-1.78.82a.59.59,0,0,0-.42.13,1.16,1.16,0,0,0-.76.23A.33.33,0,0,0,113.57,39.66Z"/><path class="cls-2" d="M168.45,17.21a2,2,0,0,1-.86.09H161.8c-.72,0-.73,0-.73.73V39.42c0,.73,0,.74-.74.74-1.36,0-2.72,0-4.09,0-.69,0-.7,0-.7-.7V18c0-.68,0-.68-.69-.69s-1.33-.05-2-.05a4.69,4.69,0,0,1-2.39-1c-.25-.14-.24-.47-.45-.66a6.24,6.24,0,0,1-1.42-3.31c-.08-.33.08-.45.39-.43h.6c4.35,0,8.71,0,13.07,0a5.7,5.7,0,0,1,5.27,3.44A3.76,3.76,0,0,1,168.45,17.21Z"/><path class="cls-2" d="M135.23,11.61l-2-.08a3.92,3.92,0,0,1,.8-1c.61-.68,1.21-1.35,1.77-2.06a.75.75,0,0,1,.71-.31c.24,0,.49,0,.74,0,1.68,0,1.7,0,2.83,1.27.45.52.93,1,1.41,1.51.12.14.36.25.25.48s-.31.11-.47.11c-.82,0-1.63,0-2.45,0-.1,0-.21,0-.3-.14-.21-.32-.47-.62-.71-.92s-.35-.24-.54,0-.22.19-.31.31a1.71,1.71,0,0,1-1.63.75Z"/><path class="cls-2" d="M144.75,3.4A16.11,16.11,0,0,0,147,4.84c.54.32.57.45,0,.79-.78.49-1.59.94-2.38,1.41s-1.55.82-2.26,1.33a1,1,0,0,1-1.39,0c-.29-.25-.82-.35-.88-.64s.47-.45.72-.71c1.2-1.24,2.43-2.45,3.65-3.68Z"/><path class="cls-3" d="M88.67,67.4c-.26-.13-.52-.26-.79-.37a52.92,52.92,0,0,0-5.23-2c-2.63-.86-5.32-1.52-8-2.12-1.46-.32-2.93-.58-4.4-.85-.61-.11-1.24-.16-1.84-.33l-.37,0a.46.46,0,0,1-.28-.06A14.92,14.92,0,0,1,66,61.41l-.18,0a2.41,2.41,0,0,1-.54,0A.3.3,0,0,1,65,61c0-.31-.12-.62-.19-.93a.28.28,0,0,0,0-.09l-1-5.22c-.32-1.78-.63-3.55-1-5.32-.24-1.26-.42-2.53-.73-3.78a8.19,8.19,0,0,0-.21-1.3q-.8-4.42-1.61-8.83L59.65,32a1,1,0,0,0-.48-.76c-2-1.33-4.05-2.68-6.06-4a.45.45,0,0,0-.29-.1.31.31,0,0,0,0,.08c.13,1.23.26,2.46.4,3.69.16,1.52.34,3,.51,4.55l.39,3.69c.18,1.58.35,3.15.53,4.73.08.64.11,1.28.25,1.9s.13,1.48.21,2.22c.1,1,.23,2,.33,3,.07.74.2,1.47.21,2.22a.13.13,0,0,1,0,.18,8,8,0,0,1,.15,1.38.48.48,0,0,1,0,.37,1.69,1.69,0,0,1,0,.55.24.24,0,0,1,0,.27,1.18,1.18,0,0,1,0,.46.67.67,0,0,1,.06.46,1.18,1.18,0,0,1,0,.46.66.66,0,0,1,.06.46c0,.09,0,.18,0,.27a.81.81,0,0,1,.06.46.63.63,0,0,1,0,.27c0,.25.05.5.08.74l0,.27.1.37c0,.35,0,.35-.35.32l-.48-.06h-.18a1.36,1.36,0,0,1-1.2-.38c-.39-.36-.84-.67-1.27-1-.52-.51-1.12-.93-1.69-1.4-1.13-.91-2.26-1.82-3.41-2.71a.87.87,0,0,1-.28-1l7.51,6.06c0-.33,0-.57,0-.8a1.18,1.18,0,0,1,0-.46c-.09-.24-.35-.33-.48-.54h0a6.68,6.68,0,0,1-1.13-.85c-1.89-1.5-3.77-3-5.67-4.51a.85.85,0,0,1-.3-1,5.71,5.71,0,0,1,.94.69q3,2.4,6,4.82c.13.1.24.23.36.34l.07,0c.14-.15,0-.31,0-.47a.88.88,0,0,1,0-.36.32.32,0,0,1,0-.28c0-.23-.2-.37-.34-.52a.42.42,0,0,1-.26-.21c-.12-.08-.24-.15-.34-.23L50,52.44l-2.18-1.75c-.19-.15-.39-.3-.35-.59,0-.09,0-.2.08-.25s.2,0,.29.08l3.87,3.12c.84.68,1.68,1.37,2.53,2,.12.1.22.25.44.21,0-.15,0-.29,0-.42A1.28,1.28,0,0,0,54,53.55a.79.79,0,0,1-.18-.14c-.64-.47-1.23-1-1.88-1.45a9.46,9.46,0,0,1-1.47-1.21.11.11,0,0,1-.09-.09,6.25,6.25,0,0,1-1.29-1,.09.09,0,0,1-.08-.09.7.7,0,0,1-.41-.27,4.28,4.28,0,0,0-.83-.71.86.86,0,0,1-.39-.94s0-.07,0-.08a.11.11,0,0,1,.1.08l6.93,5.52a1.44,1.44,0,0,0,0-.61,1.14,1.14,0,0,0-.57-1.14,4.49,4.49,0,0,1-.51-.38.27.27,0,0,1-.25-.19.29.29,0,0,1-.21-.18c-.12,0-.22-.06-.25-.19a.3.3,0,0,1-.21-.17.26.26,0,0,1-.24-.2.27.27,0,0,1-.21-.17.28.28,0,0,1-.26-.19.3.3,0,0,1-.2-.18c-.12,0-.22-.06-.25-.19a2.7,2.7,0,0,1-.67-.54.27.27,0,0,1-.25-.2.28.28,0,0,1-.21-.17c-.12,0-.22-.06-.25-.19a2.7,2.7,0,0,1-.67-.54.27.27,0,0,1-.25-.2.3.3,0,0,1-.21-.17.26.26,0,0,1-.24-.19,10,10,0,0,1-.88-.7.77.77,0,0,1-.3-.82s-.07-.11,0-.15.09,0,.12.06a1,1,0,0,1,.31.19c1.91,1.54,3.82,3.09,5.74,4.62a3.23,3.23,0,0,0,.75.55c0-.39-.09-.73-.07-1.07a.51.51,0,0,0-.25-.46l-2.43-2c-1.3-1.06-2.61-2.12-3.92-3.16a.89.89,0,0,1-.3-1c2.25,1.8,4.44,3.59,6.71,5.38,0-.39,0-.69,0-1a.6.6,0,0,0-.28-.54l-6.2-5a.62.62,0,0,1-.28-.66c0-.06,0-.14,0-.15s.09,0,.1.11c.24,0,.37.19.54.32l5.68,4.55a.2.2,0,0,0,.25,0c0-.34,0-.7-.06-1.06a.57.57,0,0,0-.27-.41l-3-2.41-3-2.43c-.16-.13-.31-.25-.26-.49l-.07,0,0,0,0,0h0a1,1,0,0,1,0-.25c0-.17.09-.15.17,0,.27.12.44.38.71.5a.81.81,0,0,0,.12.14l5.09,4a.52.52,0,0,0,.39.18,6.34,6.34,0,0,0,0-.76,1,1,0,0,0-.47-.82c-.61-.46-1.18-1-1.78-1.44s-1.29-1.09-2-1.56-1.25-1-1.89-1.55a.66.66,0,0,1-.32-.73s0-.12,0-.14.09.05.1.11c.19,0,.3.13.43.23l5.29,4.25a.6.6,0,0,0,.4.21,3.27,3.27,0,0,0,0-1,.51.51,0,0,0-.23-.47c-.42-.32-.84-.66-1.25-1-1.47-1.2-3-2.36-4.47-3.5a.72.72,0,0,1-.31-.89s0-.06,0-.07.08,0,.1.06a2.74,2.74,0,0,1,.54.41L53,39.52c.09.07.16.19.33.17,0-.29-.08-.56-.06-.85a.76.76,0,0,0-.33-.66c-.37-.28-.74-.55-1.08-.86s-.6-.31-.78-.6c-.12,0-.22-.06-.25-.2s-.28-.18-.4-.29a10.83,10.83,0,0,1-1.28-1.07.29.29,0,0,1-.26-.2.27.27,0,0,1-.2-.17c-.12,0-.22-.06-.25-.19-.29-.19-.53-.45-.82-.63a.86.86,0,0,1-.46-1c0-.14.1-.06.15,0l.15.1,4.25,3.41,1.4,1.11c0-.32,0-.55,0-.77a1.1,1.1,0,0,0-.49-1c-1.71-1.34-3.38-2.72-5.09-4a.81.81,0,0,1-.32-1l5.7,4.54a3.36,3.36,0,0,0,0-.84,1,1,0,0,0-.41-.81c-1.2-.93-2.38-1.87-3.54-2.84-.26-.21-.6-.3-.79-.6-.12,0-.22-.06-.25-.19a.3.3,0,0,1-.21-.17.27.27,0,0,1-.25-.2.57.57,0,0,1-.38-.59h0c0-.11-.06-.27.12-.37l2.75,2.19c.92.73,1.81,1.48,2.77,2.19a5,5,0,0,0,0-1,.66.66,0,0,0-.31-.58c-1.65-1.32-3.31-2.66-5-4a2,2,0,0,1-.27-.24c-.1-.12-.1-.51,0-.56s.27.06.39.14l.19.13,2.57,2.08,1.92,1.55c.08.07.16.19.27.14s.06-.22.05-.33,0-.46-.05-.69a.46.46,0,0,0-.2-.39C51.12,28.47,50,27.6,49,26.73c-.59-.47-1.17-.93-1.75-1.41-.32-.26-.34-.45-.18-.84,1.76,1.33,3.41,2.82,5.25,4.16,0-.37,0-.66-.05-.95a.81.81,0,0,0-.37-.68c-.34-.23-.65-.51-1-.77-1.17-.95-2.32-1.92-3.52-2.84a.9.9,0,0,1-.42-1c0-.08,0,0,.08,0s.26.25.41.37l3.66,2.93.69.53c.07.05.13.14.24.1s.06-.16,0-.24c0-.24-.07-.48-.08-.73a.76.76,0,0,0-.36-.59c-.88-.69-1.75-1.42-2.62-2.12-.55-.44-1.09-.88-1.65-1.3a1,1,0,0,1-.47-1.14,19.82,19.82,0,0,0,1.62,1.34,16.6,16.6,0,0,0,1.67,1.34,11.86,11.86,0,0,0,1.65,1.28,7,7,0,0,0-.06-1.24c0-.12-.09-.19-.17-.26l-.3-.22c-1.36-1.1-2.71-2.21-4.08-3.31-.43-.34-.47-.43-.33-1,.18.09.28.27.43.4l3.81,3.05a1.5,1.5,0,0,0,.33.23c.12.06.22,0,.21-.13,0-.32-.07-.64-.12-1a.56.56,0,0,0-.24-.37c-1.35-1.09-2.69-2.19-4.06-3.26A.92.92,0,0,1,46.85,16a0,0,0,0,1,.06,0c.26.24.52.5.8.73.91.75,1.84,1.5,2.76,2.24a8.46,8.46,0,0,0,.68.54c.21.15.28.11.28-.13s0-.61,0-.91a.59.59,0,0,0-.26-.46c-.22-.17-.44-.33-.65-.51l-5.22-4.19c-.06-.06-.13-.14-.26,0v.53c0,3.71,0,7.43.06,11.14.05,4.25,0,8.5.05,12.75a17,17,0,0,0,0,2,1.4,1.4,0,0,0,0,.54c0,1.83,0,3.66,0,5.5.05,4.32,0,8.64,0,13,0,.15,0,.31,0,.46a2.89,2.89,0,0,0,0,.59c0,.11,0,.22-.17.22a1.85,1.85,0,0,1-.94,0c-.21-.12-.06-.45-.09-.69,0,0,0-.06,0-.09,0-.27.06-.54.07-.82.05-1.93,0-3.87.08-5.81.08-2.47,0-5,.1-7.42.07-1.86,0-3.73.09-5.59a5.82,5.82,0,0,0,0-1.18c0-.1,0-.19,0-.28,0-1.94,0-3.88.08-5.82s0-3.91.08-5.86c.08-2.95.08-5.9.13-8.85,0-1.34,0-2.69.07-4,0-.12.07-.28-.11-.39l-1,.81c-1.74,1.35-3.48,2.71-5.24,4.06a.73.73,0,0,0-.32.57c0,.45-.09.91-.13,1.36-.1,1.17-.2,2.35-.31,3.52-.14,1.59-.27,3.19-.44,4.78a10.59,10.59,0,0,1-.17,1.59.14.14,0,0,1,0,.18c0,.69-.1,1.36-.16,2-.15,1.61-.31,3.21-.44,4.82a10.7,10.7,0,0,0-.11,1.5,5.27,5.27,0,0,0-.11.81,13.92,13.92,0,0,1-.16,1.57.14.14,0,0,1,0,.18c0,.87-.14,1.73-.21,2.6-.09,1.14-.22,2.27-.32,3.41-.08.85-.14,1.7-.22,2.55-.11,1.19-.23,2.37-.34,3.55s-.18,2.25-.31,3.37a5.5,5.5,0,0,1-.14,1.22.14.14,0,0,1,0,.19c0,.43-.12.85-.07,1.28s-.07.66-.12,1-.16.28-.43.28-.21-.16-.21-.32,0-.57,0-.85c0-.12,0-.24,0-.36.07-1,.13-1.92.2-2.88q.21-2.94.44-5.88c.05-.56.12-1.12.14-1.68,0-.78.16-1.55.14-2.33.05-.56.12-1.12.16-1.68.08-1,.12-2.1.22-3.15a13.45,13.45,0,0,1,.16-1.68.11.11,0,0,1,0-.18c0-.26,0-.52,0-.78.07-1,.16-2,.24-3a3,3,0,0,0,0-.42c0-.18-.1-.23-.27-.14a1.49,1.49,0,0,0-.14.12c-1.51,1-3,2.07-4.54,3.05a1.53,1.53,0,0,0-.84,1.41c0,.18-.13.36,0,.6l4.49-3a.65.65,0,0,1-.35.85,4.33,4.33,0,0,0-.37.27l-3.73,2.56c-.09.06-.2.1-.23.2a4.94,4.94,0,0,0-.23,1.4l2.53-1.75,1.94-1.34c.16-.11.26,0,.25.15a.79.79,0,0,1-.39.68l-2.31,1.6L29.2,43.11a.6.6,0,0,0-.33.45c0,.32-.07.63-.11.95h.17a2.77,2.77,0,0,0,.68-.45c1-.69,2.05-1.37,3-2.1.31-.23.64-.42,1-.66,0,.43-.05.78-.4,1-.71.46-1.42.92-2.1,1.42a4.18,4.18,0,0,0-1.05.77c-.38,0-.61.37-.93.53a1.11,1.11,0,0,0-.77,1.14c0,.2-.08.41,0,.64a1.06,1.06,0,0,0,.32-.15c.51-.44,1.12-.73,1.64-1.14a11.3,11.3,0,0,0,1.13-.83,12.87,12.87,0,0,0,1.76-1.18c.05,0,.09-.08.15-.06s.07.11.07.18a.85.85,0,0,1-.47.82c-.1,0-.24,0-.31.16l-.09.09c-.06,0-.15,0-.19.1l-.08.08a6.92,6.92,0,0,0-1.11.74l-.09.09c-.06,0-.15,0-.18.09-.92.55-1.77,1.2-2.66,1.79-.07,0-.15.09-.17.2-.05.42-.11.84-.17,1.26a.57.57,0,0,0,.38-.18c.95-.64,1.89-1.31,2.84-1.95.33-.23.67-.46,1-.72s.44-.26.65-.4.3-.19.44.18a.84.84,0,0,1-.29.39c-.6.38-1.18.79-1.76,1.19l-3.15,2.13c-.12.09-.26.18-.29.34s-.09.63-.13.95c0,.07,0,.16.07.19s.11,0,.16-.05l3.49-2.37a15,15,0,0,1,1.59-1s.08-.1.1,0a.68.68,0,0,1-.4.77c-.5.31-1,.66-1.46,1L27.7,51.86c-.14.1-.31.16-.33.4a4.57,4.57,0,0,1-.25,1.22,2.55,2.55,0,0,0,.92-.56c1.1-.73,2.17-1.49,3.27-2.2a10,10,0,0,1,1.36-.9c.07-.06.13-.15.19,0a.69.69,0,0,1-.35.72c-1,.63-1.92,1.3-2.88,2l-2.37,1.6c-.08.06-.21.08-.23.2a9.55,9.55,0,0,0-.2,1.32.58.58,0,0,0,.28-.1l1.23-.85q1.9-1.32,3.82-2.61c.11-.07.24-.32.42-.16s0,.31-.07.47-.15.22-.26.3c-1,.68-2,1.35-3,2-.82.57-1.67,1.08-2.47,1.69-.07,0-.2.08-.2.17,0,.37-.11.72-.12,1.09,0,.13.09.15.19.12a1.18,1.18,0,0,0,.18-.13l2.22-1.5c1.05-.72,2.08-1.45,3.16-2.13a1.5,1.5,0,0,0,.13-.11.08.08,0,0,1,.12,0s0,.08,0,.12a.67.67,0,0,1-.4.76c-.52.31-1,.68-1.5,1q-1.89,1.29-3.79,2.57a1.1,1.1,0,0,0-.53.68,2.38,2.38,0,0,0-.08.92.87.87,0,0,0,.52-.24c1.24-.83,2.47-1.68,3.71-2.52A15.52,15.52,0,0,1,32,56.15l.13-.12a.08.08,0,0,1,.12,0s0,.08,0,.11c0,.25.05.48-.21.65-1,.65-2,1.31-3,2-.13.08-.32.12-.37.31a.42.42,0,0,0-.17,0l-2.56,1.78a.78.78,0,0,1-.42.17c-1.77.2-3.53.45-5.3.73-3.25.52-6.47,1.16-9.67,2A72.92,72.92,0,0,0,2.66,66.3,23.19,23.19,0,0,0,0,67.45a.43.43,0,0,1,0,.11c1.21-.31,2.39-.68,3.6-1,1-.23,1.91-.48,2.86-.7,4.26-1,8.57-1.69,12.89-2.27q3.84-.51,7.7-.82a9.45,9.45,0,0,1,1.59-.11.13.13,0,0,1,.18,0,.82.82,0,0,1,.31-.07c1-.06,2-.14,3-.19,1.89-.1,3.78-.2,5.67-.26,2.07-.06,4.13-.07,6.19-.1,1.3,0,2.6,0,3.9.07a1.28,1.28,0,0,1,.82,0c1.42,0,2.83,0,4.25.11,1.87.07,3.75.16,5.61.32,1.39.11,2.77.19,4.15.32a4.73,4.73,0,0,1,1.13.14l.37,0a13,13,0,0,1,1.38.16l.27,0a1.13,1.13,0,0,1,.55.07.94.94,0,0,1,.47.06l.36,0a.89.89,0,0,1,.36,0h.19c1.13.14,2.27.27,3.4.43,1.63.24,3.26.49,4.89.77,2.53.43,5,1,7.53,1.54,1.4.33,2.79.69,4.17,1.09a1.88,1.88,0,0,0,.84.19S88.67,67.42,88.67,67.4ZM47.52,49.69v0h0Zm-.45-23.13,0,0,0,0s0,0,0,0Zm-13.89,19,0,0v0Zm-1.83,14.9c.11-.17.28-.23.42-.34C31.87,60.52,31.82,60.56,31.35,60.49ZM43.74,14.55c.1.75.1.87-.5,1.11C43.09,15,43.1,15,43.74,14.55Zm-4.13,4a.87.87,0,0,1,.25-1c.1-.08.19-.13.26,0A.72.72,0,0,1,39.61,18.53Zm1.19.85c-.2-.61,0-.93.45-1.08C41.41,18.93,41.39,19,40.8,19.38Zm.05-1.8c-.17-.65-.1-.81.45-1C41.42,17.25,41.4,17.29,40.85,17.58Zm1.09,4.32c-.09-.71-.06-.78.51-1.07C42.57,21.36,42.61,21.67,41.94,21.9ZM42,20.16c-.2-.49-.07-.78.49-1.1C42.59,19.57,42.52,20,42,20.16Zm0-1.74c-.11-.75-.09-.8.41-1.12C42.66,17.81,42.58,18.06,42,18.42Zm.05-1.77c-.2-.74,0-.9.48-1.09C42.66,16.3,42.64,16.25,42.06,16.65Zm1.18,4.25c-.21-.6-.16-.71.51-1.12C43.84,20.56,43.84,20.57,43.24,20.9Zm.48-2.84c.18.8,0,.86-.51,1.1C43.13,18.4,43.15,18.37,43.72,18.06Zm-.49-.61a.82.82,0,0,1,.47-1.13C43.91,16.88,43.84,17.05,43.23,17.45Zm10.7,11.23c.55.07.51.51.57.89C54,29.46,53.92,29.32,53.93,28.68ZM54,30.16c.61.18.78.53.63,1C54.1,31.06,54.15,30.58,54,30.16Zm1.1,4.13a.94.94,0,0,1-.61-1C55.06,33.43,55.14,33.81,55.12,34.29ZM55,29.52c.54.14.66.33.55.93A.84.84,0,0,1,55,29.52Zm.3,1.53c.45.16.54.52.56,1C55.21,31.73,55.21,31.73,55.33,31.05Zm1,4.08a.85.85,0,0,1-.62-1C56.21,34.31,56.36,34.47,56.32,35.13Zm-.11-4.79c.58.27.66.43.54,1A.86.86,0,0,1,56.21,30.34Zm.85,2.48c-.52-.15-.61-.3-.57-.9A.76.76,0,0,1,57.06,32.82Zm.37-1.59c.51.11.55.51.58.93C57.46,32,57.37,31.82,57.43,31.23Z"/><path class="cls-4" d="M82.72,36A35.93,35.93,0,0,1,79,52a38.51,38.51,0,0,0,1.4-3.81,35.19,35.19,0,1,0-67.33,0A34,34,0,0,0,14.46,52,36,36,0,1,1,82.72,36Z"/><text class="cls-5" transform="translate(99.23 61.31)">ĐI CÙNG ĐỂ THÀNH CÔNG</text></g></g></svg>