<?xml version="1.0" encoding="utf-8"?>
<!-- Generator: Adobe Illustrator 23.0.0, SVG Export Plug-In . SVG Version: 6.00 Build 0)  -->
<svg version="1.1" id="Logo_1_" xmlns="http://www.w3.org/2000/svg" xmlns:xlink="http://www.w3.org/1999/xlink" x="0px" y="0px"
	 viewBox="0 0 301.7 73.2" style="enable-background:new 0 0 301.7 73.2;" xml:space="preserve">
<style type="text/css">
	.st0{fill-rule:evenodd;clip-rule:evenodd;fill:#26AE61;}
	.st1{fill-rule:evenodd;clip-rule:evenodd;fill:#323232;}
	.st2{fill-rule:evenodd;clip-rule:evenodd;fill:#969696;}
	.st3{fill:#D9BA42;}
	.st4{fill:#E9CE4B;}
	.st5{fill:#EAE9E8;}
	.st6{fill:#E8B704;}
	.st7{fill:#025D99;}
	.st8{fill:url(#SVGID_1_);}
	.st9{fill:url(#SVGID_2_);stroke:#D9BA42;stroke-width:5.933269e-02;stroke-miterlimit:10;}
	.st10{fill:#686868;}
	.st11{font-family:'SVN-ArialItalic';}
	.st12{font-size:14.0825px;}
</style>
<g>
	<g id="Shape_1">
		<g>
			<path class="st0" d="M50.5-191.5l-14.1-11.7l-14.1,11.7L1.5-212.4v53.3l34.9,20l34.9-20v-53.3L50.5-191.5z M65.8-162.2
				l-29.4,16.9L7-162.2v-37l11.4,11.5l-5.7,4.7l3.5,4.1l20.1-16.8L56.6-179l3.5-4.1l-5.7-4.7l11.4-11.5
				C65.8-199.3,65.8-162.2,65.8-162.2z M33.7-179.4h5.5v-5.4h-5.5V-179.4z"/>
		</g>
	</g>
	<g id="Real_Villa">
		<g>
			<path class="st1" d="M107.7-189.1c-0.1-0.1,0-0.2,0.1-0.2c1.2-0.6,2.2-1.5,2.8-2.7c0.7-1.2,1-2.6,1-4.2c0-1.6-0.3-3.1-1-4.3
				c-0.7-1.3-1.6-2.2-2.8-2.9c-1.2-0.7-2.6-1.1-4.2-1.1H94c-0.1,0-0.2,0-0.3,0.1c-0.1,0.1-0.1,0.2-0.1,0.3v25.8c0,0.1,0,0.2,0.1,0.3
				c0.1,0.1,0.2,0.1,0.3,0.1h5.4c0.1,0,0.2,0,0.3-0.1c0.1-0.1,0.1-0.2,0.1-0.3v-10c0-0.1,0.1-0.2,0.2-0.2h1.5c0.1,0,0.1,0,0.2,0.1
				l3.6,10.1c0.1,0.3,0.2,0.4,0.5,0.4h5.7c0.3,0,0.4-0.1,0.4-0.3c0-0.1,0-0.1,0-0.2L107.7-189.1z M104.6-194.1
				c-0.5,0.5-1.2,0.8-2,0.8H100c-0.1,0-0.2-0.1-0.2-0.2v-5.4c0-0.1,0.1-0.2,0.2-0.2h2.7c0.8,0,1.5,0.3,2,0.8s0.7,1.2,0.7,2.2
				C105.4-195.3,105.1-194.6,104.6-194.1z M133.7-204.5h-15.9c-0.1,0-0.2,0-0.3,0.1s-0.1,0.2-0.1,0.3v25.8c0,0.1,0,0.2,0.1,0.3
				c0.1,0.1,0.2,0.1,0.3,0.1h15.9c0.1,0,0.2,0,0.3-0.1c0.1-0.1,0.1-0.2,0.1-0.3v-4.5c0-0.1,0-0.2-0.1-0.3c-0.1-0.1-0.2-0.1-0.3-0.1
				h-9.8c-0.1,0-0.2-0.1-0.2-0.2v-4.9c0-0.1,0.1-0.2,0.2-0.2h5.9c0.1,0,0.2,0,0.3-0.1c0.1-0.1,0.1-0.2,0.1-0.3v-4.5
				c0-0.1,0-0.2-0.1-0.3c-0.1-0.1-0.2-0.1-0.3-0.1h-5.9c-0.1,0-0.2-0.1-0.2-0.2v-4.8c0-0.1,0.1-0.2,0.2-0.2h9.8c0.1,0,0.2,0,0.3-0.1
				c0.1-0.1,0.1-0.2,0.1-0.3v-4.5c0-0.1,0-0.2-0.1-0.3C134-204.5,133.8-204.5,133.7-204.5z M153.7-204.2c-0.1-0.3-0.3-0.4-0.5-0.4
				h-6.7c-0.3,0-0.5,0.1-0.5,0.4l-6.8,25.9c-0.1,0.3,0.1,0.5,0.4,0.5h5.6c0.3,0,0.4-0.1,0.5-0.4l0.8-3.4c0-0.1,0.1-0.2,0.2-0.2h6.4
				c0.1,0,0.2,0.1,0.2,0.2l0.8,3.4c0.1,0.3,0.2,0.4,0.5,0.4h5.7c0.3,0,0.4-0.1,0.4-0.3l0-0.1L153.7-204.2z M152-186.7
				c-0.1,0-0.1,0.1-0.1,0.1h-4.1c-0.1,0-0.2-0.1-0.2-0.2l2.1-9.5c0-0.1,0.1-0.1,0.1-0.1s0.1,0.1,0.1,0.1l2.1,9.5
				C152-186.8,152-186.7,152-186.7z M182.4-183.2h-10c-0.1,0-0.2-0.1-0.2-0.2v-20.7c0-0.1,0-0.2-0.1-0.3c-0.1-0.1-0.2-0.1-0.3-0.1
				h-5.4c-0.1,0-0.2,0-0.3,0.1c-0.1,0.1-0.1,0.2-0.1,0.3v25.8c0,0.1,0,0.2,0.1,0.3c0.1,0.1,0.2,0.1,0.3,0.1h16c0.1,0,0.2,0,0.3-0.1
				c0.1-0.1,0.1-0.2,0.1-0.3v-4.5c0-0.1,0-0.2-0.1-0.3C182.7-183.2,182.5-183.2,182.4-183.2z M217.7-204.5H212
				c-0.3,0-0.5,0.1-0.5,0.4l-3.2,16.3c0,0.1-0.1,0.1-0.1,0.1s-0.1,0-0.1-0.1l-3.3-16.3c-0.1-0.3-0.2-0.4-0.5-0.4h-5.9
				c-0.3,0-0.4,0.1-0.4,0.3v0.1l6.5,25.9c0.1,0.3,0.3,0.4,0.5,0.4h5.9c0.3,0,0.5-0.1,0.5-0.4l6.6-25.9
				C218.2-204.4,218.1-204.5,217.7-204.5z M229.5-204.5h-5.4c-0.1,0-0.2,0-0.3,0.1c-0.1,0.1-0.1,0.2-0.1,0.3v25.8
				c0,0.1,0,0.2,0.1,0.3c0.1,0.1,0.2,0.1,0.3,0.1h5.4c0.1,0,0.2,0,0.3-0.1c0.1-0.1,0.1-0.2,0.1-0.3v-25.8c0-0.1,0-0.2-0.1-0.3
				C229.7-204.5,229.6-204.5,229.5-204.5z M252.6-183.2h-10c-0.1,0-0.2-0.1-0.2-0.2v-20.7c0-0.1,0-0.2-0.1-0.3
				c-0.1-0.1-0.2-0.1-0.3-0.1h-5.4c-0.1,0-0.2,0-0.3,0.1c-0.1,0.1-0.1,0.2-0.1,0.3v25.8c0,0.1,0,0.2,0.1,0.3
				c0.1,0.1,0.2,0.1,0.3,0.1h16c0.1,0,0.2,0,0.3-0.1c0.1-0.1,0.1-0.2,0.1-0.3v-4.5c0-0.1,0-0.2-0.1-0.3
				C252.9-183.2,252.8-183.2,252.6-183.2z M274.9-183.2h-10c-0.1,0-0.2-0.1-0.2-0.2v-20.7c0-0.1,0-0.2-0.1-0.3
				c-0.1-0.1-0.2-0.1-0.3-0.1h-5.4c-0.1,0-0.2,0-0.3,0.1c-0.1,0.1-0.1,0.2-0.1,0.3v25.8c0,0.1,0,0.2,0.1,0.3
				c0.1,0.1,0.2,0.1,0.3,0.1h16c0.1,0,0.2,0,0.3-0.1c0.1-0.1,0.1-0.2,0.1-0.3v-4.5c0-0.1,0-0.2-0.1-0.3
				C275.1-183.2,275-183.2,274.9-183.2z M301.5-178.3l-6.8-25.9c-0.1-0.3-0.3-0.4-0.5-0.4h-6.7c-0.3,0-0.5,0.1-0.5,0.4l-6.8,25.9
				c-0.1,0.3,0,0.5,0.4,0.5h5.6c0.3,0,0.4-0.1,0.5-0.4l0.8-3.4c0-0.1,0.1-0.2,0.2-0.2h6.4c0.1,0,0.2,0.1,0.2,0.2l0.8,3.4
				c0,0.3,0.2,0.4,0.5,0.4h5.7c0.3,0,0.4-0.1,0.4-0.3L301.5-178.3z M292.9-186.7c0,0-0.1,0.1-0.1,0.1h-4.1c-0.1,0-0.2-0.1-0.2-0.2
				l2.1-9.5c0-0.1,0.1-0.1,0.1-0.1s0.1,0.1,0.1,0.1l2.1,9.5C293-186.8,293-186.7,292.9-186.7z"/>
		</g>
	</g>
	<g id="Homes_that_match">
		<g>
			<path class="st2" d="M103.7-161.1h-5.9v-6h-3v14.7h3v-6.3h5.9v6.3h3V-167h-3V-161.1z M119.9-162.1c-0.9-0.9-2.1-1.4-3.6-1.4
				c-1,0-1.9,0.2-2.7,0.7c-0.8,0.5-1.4,1.1-1.8,2c-0.4,0.8-0.6,1.8-0.6,2.9v0.1c0,1.7,0.5,3.1,1.4,4.1c0.9,1,2.2,1.5,3.8,1.5
				s2.8-0.5,3.8-1.5c0.9-1,1.4-2.4,1.4-4l0-0.8C121.4-160,120.9-161.2,119.9-162.1z M118-155.3c-0.4,0.5-0.9,0.8-1.7,0.8
				c-0.7,0-1.3-0.3-1.7-0.8c-0.4-0.6-0.6-1.3-0.6-2.4c0-1.2,0.2-2,0.6-2.6s0.9-0.8,1.7-0.8c0.7,0,1.3,0.3,1.7,0.8s0.6,1.4,0.6,2.4
				C118.6-156.7,118.4-155.8,118-155.3z M137.9-163.5c-1.4,0-2.5,0.6-3.3,1.7c-0.5-1.1-1.5-1.7-2.9-1.7c-1.3,0-2.4,0.5-3.1,1.4
				l-0.1-1.2h-2.7v10.9h2.9v-7.7c0.4-0.7,1-1,1.8-1c0.6,0,1,0.1,1.3,0.4s0.4,0.7,0.4,1.4v7h2.9l0-7.5c0.3-0.8,0.9-1.3,1.8-1.3
				c0.6,0,1,0.1,1.3,0.4c0.2,0.3,0.4,0.7,0.4,1.4v7h2.9v-7c0-1.4-0.3-2.4-0.9-3.1C139.9-163.1,139.1-163.5,137.9-163.5z
				 M150.8-163.5c-1,0-1.9,0.2-2.6,0.7c-0.8,0.5-1.4,1.1-1.8,2c-0.4,0.9-0.6,1.9-0.6,2.9v0.3c0,1.6,0.5,3,1.5,3.9s2.3,1.5,3.9,1.5
				c0.9,0,1.7-0.2,2.5-0.5c0.8-0.3,1.3-0.8,1.8-1.4l-1.4-1.6c-0.6,0.8-1.5,1.2-2.6,1.2c-0.7,0-1.3-0.2-1.8-0.6
				c-0.5-0.4-0.8-1-0.9-1.7h6.9v-1.2c0-1.7-0.4-3.1-1.3-4C153.4-163,152.3-163.5,150.8-163.5z M152.7-158.8h-4.1
				c0.1-0.7,0.3-1.3,0.7-1.7c0.4-0.4,0.8-0.6,1.4-0.6c0.6,0,1.1,0.2,1.4,0.5c0.3,0.4,0.5,0.9,0.5,1.5L152.7-158.8L152.7-158.8z
				 M166.1-158.4c-0.5-0.2-1.1-0.4-1.8-0.5s-1.2-0.3-1.5-0.5c-0.3-0.2-0.5-0.5-0.5-0.8c0-0.3,0.1-0.6,0.4-0.8
				c0.3-0.2,0.6-0.3,1.1-0.3c0.6,0,1,0.1,1.3,0.4c0.3,0.3,0.4,0.6,0.4,1h2.9c0-1-0.4-1.9-1.2-2.6c-0.8-0.6-1.9-1-3.3-1
				c-1.3,0-2.3,0.3-3.1,1c-0.8,0.7-1.2,1.5-1.2,2.4c0,1.7,1.3,2.8,3.9,3.3c0.8,0.2,1.3,0.4,1.7,0.6c0.4,0.2,0.5,0.5,0.5,0.8
				c0,0.3-0.1,0.6-0.4,0.8c-0.3,0.2-0.7,0.3-1.3,0.3c-0.6,0-1.1-0.1-1.4-0.4c-0.4-0.3-0.6-0.7-0.6-1.2h-2.8c0,0.7,0.2,1.3,0.6,1.8
				c0.4,0.6,1,1,1.7,1.3c0.7,0.3,1.5,0.5,2.4,0.5c1.4,0,2.4-0.3,3.3-0.9c0.9-0.6,1.3-1.4,1.3-2.4
				C168.4-156.9,167.7-157.8,166.1-158.4z M184.1-154.8c-0.1-0.2-0.2-0.5-0.2-0.9v-5.5h1.9v-2.1h-1.9v-2.7h-2.9v2.7h-1.6v2.1h1.6
				v5.9c0,2.1,1.1,3.1,3.1,3.1c0.6,0,1.2-0.1,1.8-0.3v-2.2c-0.3,0.1-0.5,0.1-0.9,0.1C184.5-154.5,184.2-154.6,184.1-154.8z
				 M195.6-163.5c-1.2,0-2.1,0.5-2.9,1.4v-5.8h-2.9v15.5h2.9v-7.8c0.4-0.7,1-1,1.9-1c0.6,0,1.1,0.2,1.3,0.5c0.3,0.3,0.4,0.8,0.4,1.4
				v6.9h2.9v-7C199.1-162.1,197.9-163.5,195.6-163.5z M212.6-159.6c0-1.2-0.4-2.2-1.2-2.9c-0.8-0.7-1.9-1-3.2-1
				c-0.9,0-1.7,0.2-2.4,0.5c-0.7,0.3-1.3,0.7-1.6,1.3c-0.4,0.5-0.6,1.1-0.6,1.8h2.9c0-0.4,0.1-0.7,0.4-1s0.7-0.4,1.1-0.4
				c0.6,0,1,0.2,1.2,0.5c0.3,0.3,0.4,0.7,0.4,1.2v0.6h-1.3c-1.6,0-2.9,0.3-3.7,0.9c-0.9,0.6-1.3,1.5-1.3,2.7c0,0.9,0.4,1.7,1.1,2.3
				c0.7,0.6,1.6,0.9,2.6,0.9c1.1,0,2-0.4,2.8-1.2c0.1,0.4,0.2,0.7,0.3,1h2.9v-0.2c-0.3-0.5-0.4-1.3-0.4-2.4L212.6-159.6L212.6-159.6
				z M209.7-155.4c-0.2,0.3-0.4,0.6-0.8,0.8c-0.4,0.2-0.8,0.3-1.2,0.3c-0.4,0-0.8-0.1-1.1-0.4c-0.3-0.2-0.4-0.5-0.4-0.9l0-0.2
				c0.1-1,0.9-1.5,2.3-1.5h1.1L209.7-155.4L209.7-155.4z M221.1-154.8c-0.1-0.2-0.2-0.5-0.2-0.9v-5.5h1.9v-2.1h-1.9v-2.7h-2.9v2.7
				h-1.6v2.1h1.6v5.9c0,2.1,1.1,3.1,3.1,3.1c0.6,0,1.2-0.1,1.8-0.3v-2.2c-0.3,0.1-0.5,0.1-0.9,0.1
				C221.5-154.5,221.2-154.6,221.1-154.8z M246.5-163.5c-1.4,0-2.5,0.6-3.3,1.7c-0.5-1.1-1.5-1.7-2.9-1.7c-1.3,0-2.4,0.5-3.1,1.4
				l-0.1-1.2h-2.7v10.9h2.9v-7.7c0.4-0.7,1-1,1.8-1c0.6,0,1,0.1,1.3,0.4s0.4,0.7,0.4,1.4v7h2.9l0-7.5c0.3-0.8,0.9-1.3,1.8-1.3
				c0.6,0,1,0.1,1.3,0.4c0.2,0.3,0.4,0.7,0.4,1.4v7h2.9v-7c0-1.4-0.3-2.4-0.9-3.1C248.6-163.1,247.7-163.5,246.5-163.5z
				 M263.5-159.6c0-1.2-0.4-2.2-1.2-2.9c-0.8-0.7-1.9-1-3.2-1c-0.9,0-1.7,0.2-2.4,0.5c-0.7,0.3-1.3,0.7-1.6,1.3
				c-0.4,0.5-0.6,1.1-0.6,1.8h2.9c0-0.4,0.1-0.7,0.4-1s0.7-0.4,1.1-0.4c0.6,0,1,0.2,1.2,0.5c0.3,0.3,0.4,0.7,0.4,1.2v0.6h-1.3
				c-1.6,0-2.9,0.3-3.7,0.9c-0.9,0.6-1.3,1.5-1.3,2.7c0,0.9,0.4,1.7,1.1,2.3c0.7,0.6,1.6,0.9,2.6,0.9c1.1,0,2-0.4,2.8-1.2
				c0.1,0.4,0.2,0.7,0.3,1h2.9v-0.2c-0.3-0.5-0.4-1.3-0.4-2.4L263.5-159.6L263.5-159.6z M260.6-155.4c-0.2,0.3-0.4,0.6-0.8,0.8
				c-0.4,0.2-0.8,0.3-1.2,0.3c-0.4,0-0.8-0.1-1-0.4c-0.3-0.2-0.4-0.5-0.4-0.9l0-0.2c0.1-1,0.9-1.5,2.3-1.5h1.1L260.6-155.4
				L260.6-155.4z M271.9-154.8c-0.1-0.2-0.2-0.5-0.2-0.9v-5.5h1.9v-2.1h-1.9v-2.7h-2.9v2.7h-1.6v2.1h1.6v5.9c0,2.1,1.1,3.1,3.1,3.1
				c0.6,0,1.2-0.1,1.8-0.3v-2.2c-0.3,0.1-0.5,0.1-0.9,0.1C272.4-154.5,272.1-154.6,271.9-154.8z M280.6-160.4
				c0.4-0.5,0.9-0.7,1.5-0.7c0.5,0,1,0.2,1.3,0.5c0.3,0.4,0.5,0.8,0.5,1.4h2.7c0-1.3-0.4-2.3-1.3-3.1s-1.9-1.2-3.3-1.2
				c-1.6,0-2.8,0.5-3.7,1.5c-0.9,1-1.3,2.3-1.3,4v0.2c0,1.8,0.5,3.1,1.4,4.1s2.1,1.5,3.7,1.5c0.8,0,1.6-0.2,2.3-0.5
				c0.7-0.3,1.2-0.8,1.6-1.4c0.4-0.6,0.6-1.3,0.6-2H284c0,0.5-0.2,0.9-0.5,1.2c-0.3,0.3-0.8,0.4-1.3,0.4c-0.7,0-1.2-0.3-1.6-0.7
				c-0.3-0.5-0.5-1.3-0.5-2.4v-0.3C280.1-159.1,280.3-159.9,280.6-160.4z M296.6-163.5c-1.2,0-2.1,0.5-2.9,1.4v-5.8h-2.9v15.5h2.9
				v-7.8c0.4-0.7,1-1,1.9-1c0.6,0,1.1,0.2,1.3,0.5c0.3,0.3,0.4,0.8,0.4,1.4v6.9h2.9v-7C300.2-162.1,299-163.5,296.6-163.5z"/>
		</g>
	</g>
</g>
<g id="Shape_1_1_">
	<g>
		<path class="st0" d="M49.9-95.1l-14.1-11.7L21.8-95.1L1-116v53.3l34.9,20l34.9-20V-116L49.9-95.1z M65.3-65.8L35.9-49L6.4-65.8
			v-37l11.4,11.5l-5.7,4.7l3.5,4.1l20.1-16.8L56-82.6l3.5-4.1l-5.7-4.7l11.4-11.5C65.3-102.8,65.3-65.8,65.3-65.8z M33.1-83h5.5
			v-5.3h-5.5V-83z"/>
	</g>
</g>
<g id="Real_Villa_1_">
	<g>
		<path class="st1" d="M107.2-92.7c-0.1-0.1,0-0.2,0.1-0.2c1.2-0.6,2.2-1.5,2.8-2.7c0.7-1.2,1-2.6,1-4.2c0-1.6-0.3-3.1-1-4.3
			c-0.7-1.3-1.6-2.2-2.8-2.9c-1.2-0.7-2.6-1.1-4.2-1.1h-9.7c-0.1,0-0.2,0-0.3,0.1c-0.1,0.1-0.1,0.2-0.1,0.3v25.8
			c0,0.1,0,0.2,0.1,0.3c0.1,0.1,0.2,0.1,0.3,0.1h5.4c0.1,0,0.2,0,0.3-0.1c0.1-0.1,0.1-0.2,0.1-0.3v-10c0-0.1,0.1-0.2,0.2-0.2h1.5
			c0.1,0,0.1,0,0.2,0.1l3.6,10.1c0.1,0.3,0.2,0.4,0.5,0.4h5.7c0.3,0,0.4-0.1,0.4-0.3c0-0.1,0-0.1,0-0.2L107.2-92.7z M104.1-97.7
			c-0.5,0.5-1.2,0.8-2,0.8h-2.7c-0.1,0-0.2-0.1-0.2-0.2v-5.4c0-0.1,0.1-0.2,0.2-0.2h2.7c0.8,0,1.5,0.3,2,0.8
			c0.5,0.5,0.7,1.2,0.7,2.2C104.8-98.9,104.6-98.2,104.1-97.7z M133.2-108.1h-15.9c-0.1,0-0.2,0-0.3,0.1c-0.1,0.1-0.1,0.2-0.1,0.3
			v25.8c0,0.1,0,0.2,0.1,0.3c0.1,0.1,0.2,0.1,0.3,0.1h15.9c0.1,0,0.2,0,0.3-0.1c0.1-0.1,0.1-0.2,0.1-0.3v-4.5c0-0.1,0-0.2-0.1-0.3
			c-0.1-0.1-0.2-0.1-0.3-0.1h-9.8c-0.1,0-0.2-0.1-0.2-0.2v-4.9c0-0.1,0.1-0.2,0.2-0.2h5.9c0.1,0,0.2,0,0.3-0.1
			c0.1-0.1,0.1-0.2,0.1-0.3v-4.5c0-0.1,0-0.2-0.1-0.3c-0.1-0.1-0.2-0.1-0.3-0.1h-5.9c-0.1,0-0.2-0.1-0.2-0.2v-4.8
			c0-0.1,0.1-0.2,0.2-0.2h9.8c0.1,0,0.2,0,0.3-0.1c0.1-0.1,0.1-0.2,0.1-0.3v-4.5c0-0.1,0-0.2-0.1-0.3
			C133.4-108.1,133.3-108.1,133.2-108.1z M153.2-107.7c-0.1-0.3-0.3-0.4-0.5-0.4H146c-0.3,0-0.5,0.1-0.5,0.4l-6.8,25.9
			c-0.1,0.3,0.1,0.5,0.4,0.5h5.6c0.3,0,0.4-0.1,0.5-0.4l0.8-3.4c0-0.1,0.1-0.1,0.2-0.1h6.4c0.1,0,0.2,0,0.2,0.1l0.8,3.4
			c0.1,0.3,0.2,0.4,0.5,0.4h5.7c0.3,0,0.4-0.1,0.4-0.3l0-0.2L153.2-107.7z M151.4-90.3c-0.1,0-0.1,0.1-0.1,0.1h-4.1
			c-0.1,0-0.2-0.1-0.2-0.2l2.1-9.5c0-0.1,0.1-0.2,0.1-0.2s0.1,0.1,0.1,0.2l2.1,9.5C151.5-90.4,151.5-90.3,151.4-90.3z M181.9-86.8
			h-10c-0.1,0-0.2-0.1-0.2-0.2v-20.7c0-0.1,0-0.2-0.1-0.3c-0.1-0.1-0.2-0.1-0.3-0.1h-5.4c-0.1,0-0.2,0-0.3,0.1
			c-0.1,0.1-0.1,0.2-0.1,0.3v25.8c0,0.1,0,0.2,0.1,0.3c0.1,0.1,0.2,0.1,0.3,0.1h16c0.1,0,0.2,0,0.3-0.1c0.1-0.1,0.1-0.2,0.1-0.3
			v-4.5c0-0.1,0-0.2-0.1-0.3C182.1-86.8,182-86.8,181.9-86.8z M217.2-108.1h-5.7c-0.3,0-0.5,0.1-0.5,0.4l-3.2,16.3
			c0,0.1-0.1,0.1-0.1,0.1s-0.1,0-0.1-0.1l-3.3-16.3c-0.1-0.3-0.2-0.4-0.5-0.4h-5.9c-0.3,0-0.4,0.1-0.4,0.3v0.2l6.5,25.9
			c0.1,0.3,0.3,0.4,0.5,0.4h5.9c0.3,0,0.5-0.1,0.5-0.4l6.6-25.9C217.7-108,217.6-108.1,217.2-108.1z M228.9-108.1h-5.4
			c-0.1,0-0.2,0-0.3,0.1c-0.1,0.1-0.1,0.2-0.1,0.3v25.8c0,0.1,0,0.2,0.1,0.3c0.1,0.1,0.2,0.1,0.3,0.1h5.4c0.1,0,0.2,0,0.3-0.1
			c0.1-0.1,0.1-0.2,0.1-0.3v-25.8c0-0.1,0-0.2-0.1-0.3C229.1-108.1,229.1-108.1,228.9-108.1z M252.1-86.8h-10
			c-0.1,0-0.2-0.1-0.2-0.2v-20.7c0-0.1,0-0.2-0.1-0.3c-0.1-0.1-0.2-0.1-0.3-0.1h-5.4c-0.1,0-0.2,0-0.3,0.1c-0.1,0.1-0.1,0.2-0.1,0.3
			v25.8c0,0.1,0,0.2,0.1,0.3c0.1,0.1,0.2,0.1,0.3,0.1h16c0.1,0,0.2,0,0.3-0.1c0.1-0.1,0.1-0.2,0.1-0.3v-4.5c0-0.1,0-0.2-0.1-0.3
			C252.3-86.8,252.2-86.8,252.1-86.8z M274.4-86.8h-10c-0.1,0-0.2-0.1-0.2-0.2v-20.7c0-0.1,0-0.2-0.1-0.3c-0.1-0.1-0.2-0.1-0.3-0.1
			h-5.4c-0.1,0-0.2,0-0.3,0.1c-0.1,0.1-0.1,0.2-0.1,0.3v25.8c0,0.1,0,0.2,0.1,0.3c0.1,0.1,0.2,0.1,0.3,0.1h16c0.1,0,0.2,0,0.3-0.1
			c0.1-0.1,0.1-0.2,0.1-0.3v-4.5c0-0.1,0-0.2-0.1-0.3C274.6-86.8,274.5-86.8,274.4-86.8z M301-81.9l-6.8-25.9
			c-0.1-0.3-0.3-0.4-0.5-0.4H287c-0.3,0-0.5,0.1-0.5,0.4l-6.8,25.9c-0.1,0.3,0,0.5,0.4,0.5h5.6c0.3,0,0.4-0.1,0.5-0.4l0.8-3.4
			c0-0.1,0.1-0.2,0.2-0.2h6.4c0.1,0,0.2,0.1,0.2,0.2l0.8,3.4c0,0.3,0.2,0.4,0.5,0.4h5.7c0.3,0,0.4-0.1,0.4-0.3L301-81.9z
			 M292.4-90.3c0,0-0.1,0.1-0.1,0.1h-4.1c-0.1,0-0.2-0.1-0.2-0.2l2.1-9.5c0-0.1,0.1-0.2,0.1-0.2s0.1,0.1,0.1,0.2l2.1,9.5
			C292.5-90.4,292.4-90.3,292.4-90.3z"/>
	</g>
</g>
<g id="Homes_that_match_1_">
	<g>
		<path class="st2" d="M103.2-64.6h-5.9v-6h-3v14.7h3v-6.3h5.9v6.3h3v-14.7h-3V-64.6z M119.4-65.7c-0.9-0.9-2.1-1.3-3.6-1.3
			c-1,0-1.9,0.2-2.7,0.7c-0.8,0.5-1.4,1.1-1.8,2c-0.4,0.9-0.6,1.8-0.6,2.9v0.1c0,1.7,0.5,3.1,1.4,4.1c0.9,1,2.2,1.5,3.8,1.5
			s2.8-0.5,3.8-1.5c0.9-1,1.4-2.4,1.4-4l0-0.8C120.8-63.5,120.3-64.8,119.4-65.7z M117.5-58.9c-0.4,0.5-0.9,0.8-1.7,0.8
			c-0.7,0-1.3-0.3-1.7-0.8c-0.4-0.5-0.6-1.3-0.6-2.4c0-1.2,0.2-2,0.6-2.6s0.9-0.8,1.7-0.8c0.7,0,1.3,0.3,1.7,0.8s0.6,1.3,0.6,2.4
			C118.1-60.3,117.9-59.4,117.5-58.9z M137.3-67c-1.4,0-2.5,0.6-3.3,1.7c-0.5-1.1-1.5-1.7-2.9-1.7c-1.3,0-2.4,0.5-3.1,1.4l-0.1-1.2
			h-2.7v10.9h2.9v-7.7c0.4-0.7,1-1,1.8-1c0.6,0,1,0.1,1.3,0.4s0.4,0.7,0.4,1.4v7h2.9l0-7.5c0.3-0.8,0.9-1.3,1.8-1.3
			c0.6,0,1,0.1,1.3,0.4s0.4,0.7,0.4,1.4v7h2.9v-7c0-1.4-0.3-2.4-0.9-3.1C139.4-66.7,138.5-67,137.3-67z M150.2-67
			c-1,0-1.9,0.2-2.6,0.7c-0.8,0.5-1.4,1.1-1.8,2c-0.4,0.9-0.6,1.9-0.6,3v0.3c0,1.6,0.5,3,1.5,3.9s2.3,1.5,3.9,1.5
			c0.9,0,1.7-0.2,2.5-0.5s1.3-0.8,1.8-1.5l-1.4-1.6c-0.6,0.8-1.5,1.2-2.6,1.2c-0.7,0-1.3-0.2-1.8-0.7c-0.5-0.4-0.8-1-0.9-1.7h6.9
			v-1.2c0-1.7-0.4-3.1-1.3-4C152.9-66.6,151.7-67,150.2-67z M152.2-62.4h-4.1c0.1-0.7,0.3-1.3,0.7-1.7c0.4-0.4,0.8-0.6,1.4-0.6
			c0.6,0,1.1,0.2,1.4,0.5c0.3,0.4,0.5,0.9,0.5,1.5L152.2-62.4L152.2-62.4z M165.6-62c-0.5-0.2-1.1-0.3-1.8-0.5
			c-0.7-0.1-1.2-0.3-1.5-0.5c-0.3-0.2-0.5-0.5-0.5-0.8c0-0.3,0.1-0.6,0.4-0.8c0.3-0.2,0.6-0.3,1.1-0.3c0.6,0,1,0.1,1.3,0.4
			c0.3,0.3,0.4,0.6,0.4,1h2.9c0-1-0.4-1.9-1.2-2.5c-0.8-0.7-1.9-1-3.3-1c-1.3,0-2.3,0.3-3.1,1c-0.8,0.7-1.2,1.5-1.2,2.4
			c0,1.7,1.3,2.8,3.9,3.3c0.8,0.2,1.3,0.3,1.7,0.5c0.4,0.2,0.5,0.5,0.5,0.8c0,0.3-0.1,0.6-0.4,0.8c-0.3,0.2-0.7,0.3-1.3,0.3
			c-0.6,0-1.1-0.1-1.4-0.4c-0.4-0.3-0.6-0.7-0.6-1.2h-2.8c0,0.7,0.2,1.3,0.6,1.8c0.4,0.6,1,1,1.7,1.3c0.7,0.3,1.5,0.5,2.4,0.5
			c1.4,0,2.4-0.3,3.3-0.9c0.9-0.6,1.3-1.4,1.3-2.4C167.9-60.4,167.1-61.4,165.6-62z M183.6-58.4c-0.1-0.2-0.2-0.5-0.2-0.9v-5.5h1.9
			v-2.1h-1.9v-2.7h-2.9v2.7h-1.6v2.1h1.6v5.9c0,2.1,1.1,3.1,3.1,3.1c0.6,0,1.2-0.1,1.8-0.3v-2.2c-0.3,0-0.5,0.1-0.9,0.1
			C184-58.1,183.7-58.2,183.6-58.4z M195-67c-1.2,0-2.1,0.5-2.9,1.4v-5.8h-2.9v15.5h2.9v-7.8c0.4-0.7,1-1,1.9-1
			c0.6,0,1.1,0.2,1.3,0.4c0.3,0.3,0.4,0.8,0.4,1.4v6.9h2.9v-7C198.6-65.7,197.4-67,195-67z M212.1-63.2c0-1.2-0.4-2.2-1.2-2.9
			s-1.9-1-3.2-1c-0.9,0-1.7,0.2-2.4,0.5c-0.7,0.3-1.3,0.7-1.6,1.3s-0.6,1.1-0.6,1.8h2.9c0-0.4,0.1-0.7,0.4-1
			c0.3-0.2,0.7-0.3,1.1-0.3c0.6,0,1,0.2,1.2,0.4c0.3,0.3,0.4,0.7,0.4,1.2v0.6h-1.3c-1.6,0-2.9,0.3-3.7,0.9s-1.3,1.5-1.3,2.7
			c0,0.9,0.4,1.7,1.1,2.3s1.6,0.9,2.6,0.9c1.1,0,2-0.4,2.8-1.2c0.1,0.4,0.2,0.7,0.3,1h2.9v-0.2c-0.3-0.5-0.4-1.3-0.4-2.4L212.1-63.2
			L212.1-63.2z M209.2-59c-0.2,0.3-0.4,0.6-0.8,0.8s-0.8,0.3-1.2,0.3c-0.4,0-0.8-0.1-1.1-0.3c-0.3-0.2-0.4-0.5-0.4-0.9l0-0.2
			c0.1-1,0.9-1.5,2.3-1.5h1.1L209.2-59L209.2-59z M220.5-58.4c-0.1-0.2-0.2-0.5-0.2-0.9v-5.5h1.9v-2.1h-1.9v-2.7h-2.9v2.7h-1.6v2.1
			h1.6v5.9c0,2.1,1.1,3.1,3.1,3.1c0.6,0,1.2-0.1,1.8-0.3v-2.2c-0.3,0-0.5,0.1-0.9,0.1C221-58.1,220.7-58.2,220.5-58.4z M246-67
			c-1.4,0-2.5,0.6-3.3,1.7c-0.5-1.1-1.5-1.7-2.9-1.7c-1.3,0-2.4,0.5-3.1,1.4l-0.1-1.2h-2.7v10.9h2.9v-7.7c0.4-0.7,1-1,1.8-1
			c0.6,0,1,0.1,1.3,0.4s0.4,0.7,0.4,1.4v7h2.9l0-7.5c0.3-0.8,0.9-1.3,1.8-1.3c0.6,0,1,0.1,1.3,0.4s0.4,0.7,0.4,1.4v7h2.9v-7
			c0-1.4-0.3-2.4-0.9-3.1C248-66.7,247.1-67,246-67z M263-63.2c0-1.2-0.4-2.2-1.2-2.9c-0.8-0.7-1.9-1-3.2-1c-0.9,0-1.7,0.2-2.4,0.5
			c-0.7,0.3-1.3,0.7-1.6,1.3s-0.6,1.1-0.6,1.8h2.9c0-0.4,0.1-0.7,0.4-1c0.3-0.2,0.7-0.3,1.1-0.3c0.6,0,1,0.2,1.2,0.4
			c0.3,0.3,0.4,0.7,0.4,1.2v0.6h-1.3c-1.6,0-2.9,0.3-3.7,0.9s-1.3,1.5-1.3,2.7c0,0.9,0.4,1.7,1.1,2.3s1.6,0.9,2.6,0.9
			c1.1,0,2-0.4,2.8-1.2c0.1,0.4,0.2,0.7,0.3,1h2.9v-0.2c-0.3-0.5-0.4-1.3-0.4-2.4L263-63.2L263-63.2z M260.1-59
			c-0.2,0.3-0.4,0.6-0.8,0.8s-0.8,0.3-1.2,0.3c-0.4,0-0.8-0.1-1-0.3c-0.3-0.2-0.4-0.5-0.4-0.9l0-0.2c0.1-1,0.9-1.5,2.3-1.5h1.1
			L260.1-59L260.1-59z M271.4-58.4c-0.1-0.2-0.2-0.5-0.2-0.9v-5.5h1.9v-2.1h-1.9v-2.7h-2.9v2.7h-1.6v2.1h1.6v5.9
			c0,2.1,1.1,3.1,3.1,3.1c0.6,0,1.2-0.1,1.8-0.3v-2.2c-0.3,0-0.5,0.1-0.9,0.1C271.9-58.1,271.6-58.2,271.4-58.4z M280.1-63.9
			c0.4-0.5,0.9-0.7,1.5-0.7c0.5,0,1,0.2,1.3,0.5c0.3,0.4,0.5,0.8,0.5,1.4h2.7c0-1.3-0.4-2.3-1.3-3.1c-0.8-0.8-1.9-1.2-3.3-1.2
			c-1.6,0-2.8,0.5-3.7,1.5c-0.9,1-1.3,2.3-1.3,4v0.2c0,1.8,0.5,3.1,1.4,4.1c0.9,1,2.1,1.5,3.7,1.5c0.8,0,1.6-0.2,2.3-0.5
			s1.2-0.8,1.6-1.4s0.6-1.3,0.6-2h-2.7c0,0.5-0.2,0.9-0.5,1.2c-0.3,0.3-0.8,0.4-1.3,0.4c-0.7,0-1.2-0.3-1.6-0.7s-0.5-1.3-0.5-2.4
			v-0.3C279.6-62.6,279.8-63.4,280.1-63.9z M296.1-67c-1.2,0-2.1,0.5-2.9,1.4v-5.8h-2.9v15.5h2.9v-7.8c0.4-0.7,1-1,1.9-1
			c0.6,0,1.1,0.2,1.3,0.4c0.3,0.3,0.4,0.8,0.4,1.4v6.9h2.9v-7C299.7-65.7,298.5-67,296.1-67z"/>
	</g>
</g>
<path class="st3" d="M153.5-95.1C153.5-95.1,153.5-95.1,153.5-95.1L153.5-95.1C153.5-95.1,153.5-95.1,153.5-95.1z M153.7-86.9
	C153.7-86.9,153.7-86.9,153.7-86.9C153.7-86.9,153.7-86.9,153.7-86.9L153.7-86.9z"/>
<path class="st4" d="M153.7-86.9C153.7-86.9,153.7-86.9,153.7-86.9C153.7-86.9,153.7-86.9,153.7-86.9L153.7-86.9z"/>
<path class="st5" d="M142.7-80.6C142.7-80.6,142.6-80.6,142.7-80.6C142.6-80.6,142.7-80.6,142.7-80.6z"/>
<g>
	<g>
		<path class="st6" d="M218.8,9.7c-0.9-0.6-1.9-1.2-2.8-1.7c-0.2-0.1-0.5-0.2-0.6-0.5c0-0.2,0.2-0.3,0.4-0.4
			c0.6-0.4,1.2-0.8,1.9-1.2c0.5-0.3,0.5-0.3,1,0.1c0.5,0.5,1,0.9,1.4,1.4c0.6,0.8,1.4,1.4,2,2.1c0.4,0.4,0.4,0.4-0.1,0.7
			c-1.1,0.7-1.1,0.7-2.2,0C219.5,10.1,219.1,9.9,218.8,9.7z"/>
		<path class="st7" d="M139.7,21c0.2-0.3,0.2-0.6,0.3-0.9c0.2-0.7,0.4-1.3,0.8-1.9c0.2-0.2,0.3-0.5,0.2-0.8c0-0.1,0.1-0.1,0.1-0.2
			c0,0-0.1-0.1-0.1,0c0.3-0.4,0.4-0.8,0.6-1.3c0.3-0.6,0.5-1.2,0.8-1.8c1.2,0.2,2.3,0.1,3.5,0.1c0.7-0.1,0.9,0.4,1.1,0.9
			c0.9,2.2,1.8,4.3,2.7,6.5c2,4.6,3.9,9.3,5.9,13.9c0.9,2,1.7,4.1,2.6,6.1c0.3,0.8,0.3,0.8-0.5,0.8c-1.8,0-3.3-0.6-4.7-1.7
			c-1.5-1.1-2.4-2.7-3.1-4.4c-0.5-1.2-1-2.5-1.6-3.7c-0.3-0.5-0.3-1.1-0.7-1.6c0-0.2-0.2-0.2-0.2-0.3c-0.1-0.8-0.5-1.5-0.7-2.2
			c-0.3-0.9-0.6-1.7-0.8-2.6c0-0.1-0.1-0.3-0.2-0.4c-0.1-0.1-0.1-0.2-0.2-0.3c-0.3-0.9-0.4-1.8-0.8-2.7c0,0,0,0,0,0
			c-0.5,0.3-0.5,0.9-0.6,1.3c-0.8,2.2-1.6,4.5-2.4,6.7c-0.7,1.8-1.4,3.5-2.1,5.3c-0.3,0.8-0.6,1.6-1.1,2.3c-0.8,1.3-1.9,2.4-3.3,3.1
			c-0.8,0.4-3.7,0.9-4.1,1c-0.2,0-0.3-0.1-0.2-0.3"/>
		<path class="st6" d="M286.4,33.2c-0.3-0.1-0.6-0.1-0.9-0.1c-2.4,0-4.7,0-7.1,0c-0.7,0-0.7,0-0.7-0.7c0-0.5,0.1-1,0.2-1.5
			c0.6-1.9,1.9-2.9,4-2.9c2.7,0,5.4,0,8.2,0c0.8,0,1.7,0,2.5,0c0.6,0,0.7,0,0.7,0.7c0,4-1.5,7.5-4.4,10.3c-2.2,2.1-4.8,3.5-7.8,3.9
			c-7.1,1.1-13.1-2.3-16-7.7c-2.6-4.7-2.5-12.3,3-17.4c6-5.6,15.6-5.2,21.2,0.7c1,1.1,1.9,2.3,2.4,3.7c0.3,0.6,0.2,0.7-0.4,0.7
			c-1.7,0-3.5,0-5.2,0c-0.4,0-0.6-0.1-0.8-0.4c-4-5.2-12.5-4.3-15.5,1.9c-3,6.2,1.6,12.9,7.7,13.5c3.5,0.3,6.2-1,8.4-3.7
			C286.1,33.8,286.3,33.6,286.4,33.2z"/>
		<path class="st6" d="M254.9,34c0.1-0.3,0.1-0.6,0.1-0.9c0-4.6,0.1-9.2,0-13.8c0-2.5,1.4-3.9,3.3-4.5c0.5-0.2,1.1-0.3,1.7-0.4
			c0.3,0,0.4,0,0.4,0.3c0,0.1,0,0.3,0,0.4c0,8.8,0,17.5,0,26.3c0,0.1,0,0.1,0,0.2c0,0.6,0,0.7-0.7,0.7c-1.5,0-3.1,0-4.6,0
			c-0.5,0-0.8-0.2-1-0.6c-2.9-5-5.7-10-8.6-15c-0.7-1.1-1.3-2.3-2-3.4c-0.1-0.2-0.2-0.4-0.5-0.7c0,0.3,0,0.6,0,0.8c0,4,0,7.9,0,11.9
			c0,0.7,0,1.4-0.1,2.2c-0.1,1.5-0.8,2.7-2,3.5c-0.8,0.6-1.8,0.9-2.8,1.2c-0.5,0.1-0.5,0.1-0.6-0.5c0-0.1,0-0.3,0-0.4
			c0-8.7,0-17.4,0-26.1c0-1-0.1-1,0.9-1c1.4,0,2.8,0,4.2,0c0.6,0,0.9,0.1,1.2,0.7c3.5,6.2,7,12.3,10.5,18.5
			C254.6,33.6,254.6,33.9,254.9,34z"/>
		<path class="st6" d="M234.7,42.3c-0.5,0.1-1.1,0-1.6-0.1c-2.7-0.5-4.7-2-6-4.4c-0.7-1.2-1.1-2.4-1.6-3.7
			c-1.6-3.7-2.8-7.4-4.1-11.2c-0.1-0.2-0.2-0.4-0.3-0.7c-0.3,0.1-0.3,0.4-0.3,0.5c-1.3,3.9-2.9,7.8-4.3,11.6c-0.4,1-0.8,2-1.2,2.9
			c-1.5,3.1-4.1,4.6-7.5,4.9c-0.1,0-0.2,0-0.3,0c-0.1-0.2,0-0.4,0.1-0.6c3.7-8.9,7.4-17.8,11.1-26.7c0.2-0.5,0.4-0.7,0.9-0.6
			c0.9,0,1.9,0,2.8,0c0.5,0,0.8,0.2,1,0.7c1.8,4.4,3.7,8.7,5.5,13.1c1.9,4.5,3.8,9,5.7,13.5C234.6,41.8,234.8,42,234.7,42.3z"/>
		<path class="st6" d="M203.7,19.9c0.4-0.7,0.7-1.5,1.2-2.1c1-1.4,2.4-2.4,4.1-3c0.2-0.1,0.4-0.2,0.6-0.2c0.1,0,0.2,0,0.3-0.1
			c0.7-0.1,1.3-0.3,2-0.2c0,0.4-0.2,0.7-0.3,1c-0.1,0.1-0.1,0.2-0.1,0.3c-0.1,0.1-0.1,0.2-0.1,0.3c-0.6,1.1-1,2.3-1.5,3.5
			c-3,7.4-6.1,14.8-9.1,22.3c-0.2,0.5-0.4,0.6-0.9,0.6c-0.9,0-1.9,0-2.8,0c-0.7,0-0.7,0-0.9-0.6c-1.3-2.9-2.5-5.9-3.8-8.8
			c-0.1-0.3-0.2-0.6-0.4-0.8c-0.1-0.4-0.2-0.7-0.4-1c-0.1-0.4-0.2-0.7-0.4-1c-0.5-1.4-1.2-2.8-1.8-4.2c-1.5-3.6-3-7.1-4.6-10.7
			c0-0.1-0.1-0.2-0.1-0.3c-0.1-0.4-0.1-0.4,0.3-0.4c1.1,0,2.1,0.2,3.1,0.7c1.9,0.8,3.3,2.1,4.2,3.9c0.7,1.4,1.3,2.8,1.9,4.3
			c0.6,1.3,1.1,2.6,1.7,4c0,0.3,0.1,0.5,0.3,0.8c0,0.3,0.1,0.6,0.3,0.9c0,0.1,0,0.2,0.1,0.4c0.6,1.6,1.1,3.3,1.7,4.9
			c0,0.1,0,0.3,0.2,0.3c0.2-0.2,0.2-0.5,0.3-0.8c0.7-1.9,1.3-3.9,2.1-5.8c0.6-1.5,1.1-3,1.6-4.5c0.3-0.5,0.5-1.1,0.6-1.6
			c0-0.1,0-0.2,0.1-0.3c0.1-0.2,0.2-0.4,0.2-0.6C203.5,20.5,203.6,20.2,203.7,19.9z"/>
		<path class="st7" d="M120.7,42c-0.6-0.1-1.2,0.1-1.7,0.2c-0.8,0.1-1.6,0.1-2.4,0.2c-2.4,0.2-4.8,0.1-7.2,0.1c-0.2,0-0.3,0-0.5,0
			c-0.3,0-0.4-0.1-0.4-0.4c0.1-1-0.1-2.1,0.1-3.1c0-0.2,0-0.4,0-0.7c0-3.7,0-7.4,0-11.1c0-0.1,0-0.3,0-0.4c0-0.5,0-0.6,0.5-0.6
			c2.2,0,4.4-0.1,6.6,0c1.3,0,2.4,0.7,2.8,2.1c0.2,0.5,0.3,1,0.4,1.5c-0.1,0.2,0,0.3,0,0.4c0,0.1,0,0.1,0,0.2c0,0-0.1,0.1-0.1,0.1
			c-1.5,0-2.9,0-4.4,0c-0.5,0-0.5,0-0.5,0.5c0,1.8,0,3.6,0,5.4c0,0.5,0,0.5,0.5,0.5c1.4,0,2.7,0,4.1-0.2c1.1-0.2,2.2-0.6,3.2-1.3
			c0.7-0.5,1.5-1,2-1.8c0.5-0.7,1-1.4,1.2-2.3c0-0.1,0.1-0.2,0.2-0.3c0.2-0.1,0.2-0.3,0.1-0.5c0.2-0.5,0.2-1,0.2-1.5
			c0.1-0.1,0.1-0.2,0.1-0.3c0.1-0.8-0.1-1.6-0.2-2.4c0-0.2,0-0.4-0.2-0.5c0-0.3-0.1-0.6-0.3-0.8c0-0.1-0.2-0.2-0.2-0.3
			c-0.8-2.1-2.3-3.4-4.3-4.3c-0.5-0.2-1-0.3-1.6-0.5c-0.2-0.2-0.4-0.2-0.7-0.1c-0.6-0.2-1.2-0.3-1.8-0.3c-1.4,0-2.8-0.1-4.1-0.2
			c-0.5-0.1-0.9-0.2-1.3-0.5c-0.1-0.2-0.4-0.3-0.5-0.4c-0.8-0.5-1.4-1.3-1.7-2.2c-0.2-0.5-0.1-1-0.2-1.4c0.1-0.1,0.1-0.2,0-0.3
			c0.1-0.3,0.3-0.3,0.5-0.3c2.1,0,4.3-0.1,6.4,0c1.7,0.1,3.4,0.1,5,0.5c1.9,0.5,3.8,1.1,5.4,2.4c1.8,1.5,3.2,3.3,4.1,5.4
			c0.4,1.1,0.8,2.3,1,3.5c0.3,2,0.3,3.9-0.2,5.9c-0.4,1.7-1.1,3.3-2.1,4.8c-1.2,1.7-2.6,3-4.5,4c-0.6,0.3-1.2,0.6-1.8,0.8
			c-0.1,0-0.3,0-0.4,0.1c-0.3,0-0.5,0.1-0.8,0.2C121,41.9,120.8,41.9,120.7,42z"/>
		<path class="st7" d="M175.6,19.6c-0.3,0.1-0.6,0.1-0.9,0.1c-1.9,0-3.9,0-5.8,0c-0.7,0-0.7,0-0.7,0.7c0,7,0,14,0,21
			c0,0.1,0,0.2,0,0.4c0,0.7,0,0.7-0.7,0.7c-1.4,0-2.7,0-4.1,0c-0.7,0-0.7,0-0.7-0.7c0-4.5,0-8.9,0-13.4c0-2.7,0-5.4,0-8.1
			c0-0.7,0-0.7-0.7-0.7c-0.7,0-1.3,0-2,0c-1,0-1.6-0.5-2.4-1c-0.3-0.1-0.2-0.5-0.4-0.7c-0.9-0.9-1.1-2.1-1.4-3.3
			c-0.1-0.3,0.1-0.4,0.4-0.4c0.2,0,0.4,0,0.6,0c4.4,0,8.7,0,13.1,0c2.4,0,4.2,1.3,5.3,3.4C175.4,18.3,175.6,18.9,175.6,19.6z"/>
		<path class="st7" d="M142.4,14c-0.7,0-1.3-0.1-2-0.1c0.2-0.5,0.6-0.7,0.8-1c0.6-0.7,1.2-1.4,1.8-2.1c0.2-0.2,0.4-0.3,0.7-0.3
			c0.2,0,0.5,0,0.7,0c1.7,0,1.7,0,2.8,1.3c0.5,0.5,0.9,1,1.4,1.5c0.1,0.1,0.4,0.2,0.3,0.5c-0.1,0.2-0.3,0.1-0.5,0.1
			c-0.8,0-1.6,0-2.4,0c-0.1,0-0.2,0-0.3-0.1c-0.2-0.3-0.5-0.6-0.7-0.9c-0.2-0.2-0.3-0.2-0.5,0c-0.1,0.1-0.2,0.2-0.3,0.3
			C143.7,13.7,143.2,14,142.4,14C142.4,13.9,142.4,14,142.4,14z"/>
		<path class="st7" d="M151.9,5.8c0.7,0.6,1.5,1,2.2,1.4c0.5,0.3,0.6,0.5,0,0.8c-0.8,0.5-1.6,0.9-2.4,1.4c-0.8,0.4-1.6,0.8-2.3,1.3
			c-0.5,0.4-1,0.3-1.4,0c-0.3-0.2-0.8-0.4-0.9-0.6c-0.1-0.3,0.5-0.4,0.7-0.7c1.2-1.2,2.4-2.5,3.7-3.7C151.7,5.7,151.8,5.7,151.9,5.8
			z"/>
	</g>
	<g>
		<linearGradient id="SVGID_1_" gradientUnits="userSpaceOnUse" x1="51.0023" y1="30.4572" x2="51.4066" y2="63.4143">
			<stop  offset="7.933780e-05" style="stop-color:#E8B601"/>
			<stop  offset="0.1722" style="stop-color:#E8B705"/>
			<stop  offset="0.3349" style="stop-color:#E8BB10"/>
			<stop  offset="0.4938" style="stop-color:#E8C123"/>
			<stop  offset="0.6495" style="stop-color:#E9CA3E"/>
			<stop  offset="0.7128" style="stop-color:#E9CE4B"/>
			<stop  offset="0.8107" style="stop-color:#E9CD48"/>
			<stop  offset="0.8687" style="stop-color:#E9CA40"/>
			<stop  offset="0.9163" style="stop-color:#E9C632"/>
			<stop  offset="0.9581" style="stop-color:#E8BF1E"/>
			<stop  offset="0.9961" style="stop-color:#E8B704"/>
			<stop  offset="1" style="stop-color:#E8B601"/>
		</linearGradient>
		<path class="st8" d="M95.8,70.8c-0.3-0.1-0.5-0.3-0.8-0.4c-1.7-0.7-3.5-1.4-5.2-2c-2.6-0.9-5.3-1.5-8-2.1
			c-1.5-0.3-2.9-0.6-4.4-0.9c-0.6-0.1-1.2-0.2-1.8-0.3c-0.1,0-0.2,0-0.4,0c-0.1,0-0.2,0-0.3-0.1c-0.6-0.1-1.2-0.1-1.7-0.3
			c-0.1,0-0.1,0-0.2,0c-0.2,0-0.4,0-0.5-0.1c-0.2,0-0.3-0.1-0.3-0.3c0-0.3-0.1-0.6-0.2-0.9c0,0,0-0.1,0-0.1c-0.3-1.7-0.6-3.5-1-5.2
			c-0.3-1.8-0.6-3.5-1-5.3c-0.2-1.3-0.4-2.5-0.7-3.8c0-0.4-0.1-0.9-0.2-1.3c-0.5-2.9-1.1-5.9-1.6-8.8c-0.2-1.2-0.4-2.4-0.7-3.6
			c-0.1-0.3-0.2-0.6-0.5-0.8c-2-1.3-4-2.7-6.1-4c-0.1-0.1-0.2-0.1-0.3-0.1c0,0,0,0.1,0,0.1c0.1,1.2,0.3,2.5,0.4,3.7
			c0.2,1.5,0.3,3,0.5,4.5c0.1,1.2,0.3,2.5,0.4,3.7c0.2,1.6,0.3,3.2,0.5,4.7c0.1,0.6,0.1,1.3,0.2,1.9c0,0.7,0.1,1.5,0.2,2.2
			c0.1,1,0.2,2,0.3,3c0.1,0.7,0.2,1.5,0.2,2.2c0.1,0.1,0.1,0.1,0,0.2c0.1,0.5,0.2,0.9,0.1,1.4c0.1,0.1,0.1,0.2,0,0.4
			c0.1,0.2,0.1,0.4,0,0.5c0.1,0.1,0.1,0.2,0,0.3c0.1,0.1,0.1,0.3,0,0.5c0.1,0.1,0.1,0.3,0.1,0.5c0.1,0.1,0.1,0.3,0,0.5
			c0.1,0.1,0.1,0.3,0.1,0.5c0,0.1,0,0.2,0,0.3c0,0.2,0.1,0.3,0.1,0.5c0,0.1,0,0.2,0,0.3c0,0.2,0.1,0.5,0.1,0.7c0,0.1,0,0.2,0,0.3
			c0,0.1,0.1,0.2,0.1,0.4c0,0.4,0,0.4-0.3,0.3c-0.2,0-0.3,0-0.5-0.1c-0.1,0-0.1,0-0.2,0c-0.5,0.1-0.8-0.1-1.2-0.4
			c-0.4-0.4-0.8-0.7-1.3-1c-0.5-0.5-1.1-0.9-1.7-1.4c-1.1-0.9-2.3-1.8-3.4-2.7c-0.3-0.3-0.4-0.6-0.3-1c2.5,2,5,4,7.5,6.1
			c0-0.3-0.1-0.6,0-0.8c0-0.2,0-0.3,0-0.5c-0.1-0.2-0.4-0.3-0.5-0.5l0,0c-0.4-0.2-0.8-0.6-1.1-0.9c-1.9-1.5-3.8-3-5.7-4.5
			c-0.4-0.3-0.4-0.6-0.3-1c0.4,0.2,0.6,0.5,0.9,0.7c2,1.6,4,3.2,6,4.8c0.1,0.1,0.2,0.2,0.4,0.3c0,0,0,0,0.1,0c0.1-0.1,0-0.3,0-0.5
			c0-0.1,0-0.2,0-0.4c0-0.1-0.1-0.2,0-0.3c0-0.2-0.2-0.4-0.3-0.5c-0.1,0-0.2-0.1-0.3-0.2c-0.1-0.1-0.2-0.1-0.3-0.2
			c-1.3-1-2.6-2.1-3.9-3.1c-0.7-0.6-1.5-1.2-2.2-1.7c-0.2-0.2-0.4-0.3-0.3-0.6c0-0.1,0-0.2,0.1-0.2c0.1-0.1,0.2,0,0.3,0.1
			c1.3,1,2.6,2.1,3.9,3.1c0.8,0.7,1.7,1.4,2.5,2c0.1,0.1,0.2,0.3,0.4,0.2c0-0.1,0-0.3,0-0.4c0-0.6-0.1-1-0.7-1.3
			c-0.1,0-0.1-0.1-0.2-0.1c-0.6-0.5-1.2-1-1.9-1.5c-0.5-0.4-1-0.8-1.5-1.2c-0.1,0-0.1,0-0.1-0.1c-0.5-0.3-0.9-0.6-1.3-1
			c-0.1,0-0.1,0-0.1-0.1c-0.2,0-0.3-0.2-0.4-0.3c-0.2-0.3-0.5-0.5-0.8-0.7c-0.4-0.2-0.4-0.6-0.4-0.9c0,0,0-0.1,0-0.1
			c0.1,0,0.1,0,0.1,0.1c2.3,1.8,4.6,3.7,6.9,5.5c0.1-0.2,0-0.4,0-0.6c0-0.5-0.1-0.9-0.6-1.1c-0.2-0.1-0.3-0.2-0.5-0.4
			c-0.1,0-0.2-0.1-0.3-0.2c-0.1,0-0.2-0.1-0.2-0.2c-0.1,0-0.2-0.1-0.2-0.2c-0.1,0-0.2-0.1-0.2-0.2c-0.1,0-0.2-0.1-0.2-0.2
			c-0.1,0-0.2-0.1-0.2-0.2c-0.1,0-0.2-0.1-0.3-0.2c-0.1,0-0.2-0.1-0.2-0.2c-0.1,0-0.2-0.1-0.2-0.2c-0.2-0.2-0.5-0.3-0.7-0.5
			c-0.1,0-0.2-0.1-0.2-0.2c-0.1,0-0.2-0.1-0.2-0.2c-0.1,0-0.2-0.1-0.2-0.2c-0.2-0.2-0.5-0.3-0.7-0.5c-0.1,0-0.2-0.1-0.2-0.2
			c-0.1,0-0.2-0.1-0.2-0.2c-0.1,0-0.2-0.1-0.2-0.2c-0.3-0.2-0.6-0.5-0.9-0.7c-0.3-0.2-0.4-0.5-0.3-0.8c0,0-0.1-0.1,0-0.2
			c0.1-0.1,0.1,0,0.1,0.1c0.1,0,0.2,0.1,0.3,0.2c1.9,1.5,3.8,3.1,5.7,4.6c0.2,0.2,0.4,0.4,0.7,0.6c0-0.4-0.1-0.7-0.1-1.1
			c0-0.2-0.1-0.3-0.2-0.5c-0.8-0.6-1.6-1.3-2.4-2c-1.3-1.1-2.6-2.1-3.9-3.2c-0.3-0.2-0.4-0.5-0.3-1c2.3,1.8,4.4,3.6,6.7,5.4
			c0-0.4,0-0.7,0-1c0-0.2-0.1-0.4-0.3-0.5c-2.1-1.7-4.1-3.3-6.2-5c-0.2-0.2-0.3-0.4-0.3-0.7c0-0.1,0-0.1,0-0.1
			c0.1,0,0.1,0.1,0.1,0.1c0.2,0,0.4,0.2,0.5,0.3c1.9,1.5,3.8,3,5.7,4.6c0.1,0,0.1,0.1,0.2,0c0-0.3,0-0.7-0.1-1.1
			c0-0.2-0.1-0.3-0.3-0.4c-1-0.8-2-1.6-3-2.4c-1-0.8-2-1.6-3-2.4c-0.2-0.1-0.3-0.2-0.3-0.5c0,0,0,0-0.1,0c0,0,0,0,0,0c0,0,0,0,0,0h0
			c0-0.1,0-0.2,0-0.3c0-0.2,0.1-0.1,0.2,0c0.3,0.1,0.4,0.4,0.7,0.5c0,0,0.1,0.1,0.1,0.1c1.7,1.4,3.4,2.7,5.1,4
			c0.1,0.1,0.2,0.2,0.4,0.2c0-0.3,0-0.5,0-0.8c0-0.4-0.2-0.6-0.5-0.8c-0.6-0.5-1.2-1-1.8-1.4c-0.7-0.5-1.3-1.1-2-1.6
			c-0.6-0.6-1.3-1-1.9-1.5c-0.2-0.2-0.4-0.4-0.3-0.7c0-0.1,0-0.1,0-0.1c0.1,0,0.1,0,0.1,0.1c0.2,0,0.3,0.1,0.4,0.2
			c1.8,1.4,3.5,2.8,5.3,4.2c0.1,0.1,0.2,0.2,0.4,0.2c0.1-0.3,0-0.7,0-1c0-0.2-0.1-0.3-0.2-0.5c-0.4-0.3-0.8-0.7-1.3-1
			c-1.5-1.2-3-2.4-4.5-3.5c-0.3-0.3-0.4-0.5-0.3-0.9c0,0,0-0.1,0-0.1c0.1,0,0.1,0,0.1,0.1c0.2,0.1,0.4,0.3,0.5,0.4
			c1.7,1.4,3.4,2.7,5.1,4.1c0.1,0.1,0.2,0.2,0.3,0.2c0-0.3-0.1-0.6-0.1-0.9c0-0.3-0.1-0.5-0.3-0.7c-0.4-0.3-0.7-0.5-1.1-0.9
			c-0.2-0.2-0.6-0.3-0.8-0.6c-0.1,0-0.2-0.1-0.2-0.2c-0.2,0-0.3-0.2-0.4-0.3c-0.4-0.4-0.9-0.6-1.3-1.1c-0.1,0-0.2-0.1-0.3-0.2
			c-0.1,0-0.2-0.1-0.2-0.2c-0.1,0-0.2-0.1-0.3-0.2c-0.3-0.2-0.5-0.5-0.8-0.6c-0.4-0.3-0.6-0.6-0.5-1c0.1-0.1,0.1-0.1,0.1,0
			c0.1,0,0.1,0.1,0.2,0.1c1.4,1.1,2.8,2.3,4.3,3.4c0.4,0.3,0.9,0.7,1.4,1.1c0-0.3,0-0.5,0-0.8c0-0.4-0.1-0.7-0.5-1
			c-1.7-1.3-3.4-2.7-5.1-4c-0.3-0.3-0.5-0.5-0.3-1c1.9,1.5,3.8,3,5.7,4.5c0.1-0.3,0-0.6,0-0.8c0-0.3-0.1-0.6-0.4-0.8
			c-1.2-0.9-2.4-1.9-3.5-2.8c-0.3-0.2-0.6-0.3-0.8-0.6c-0.1,0-0.2-0.1-0.3-0.2c-0.1,0-0.2-0.1-0.2-0.2c-0.1,0-0.2-0.1-0.2-0.2
			c-0.3-0.1-0.4-0.3-0.4-0.6c0,0,0,0,0,0c0,0,0,0,0,0v0c0-0.1-0.1-0.3,0.1-0.4c0.9,0.7,1.8,1.5,2.8,2.2c0.9,0.7,1.8,1.5,2.8,2.2
			c0.1-0.4-0.1-0.7-0.1-1c0-0.3-0.1-0.4-0.3-0.6c-1.7-1.3-3.3-2.7-5-4c-0.1-0.1-0.2-0.2-0.3-0.2c-0.1-0.1-0.1-0.5,0-0.6
			c0.2-0.1,0.3,0.1,0.4,0.1c0.1,0,0.1,0.1,0.2,0.1c0.9,0.7,1.7,1.4,2.6,2.1c0.6,0.5,1.3,1,1.9,1.6c0.1,0.1,0.2,0.2,0.3,0.1
			c0.1-0.1,0.1-0.2,0-0.3c0-0.2,0-0.5,0-0.7c0-0.2-0.1-0.3-0.2-0.4c-1.1-0.9-2.2-1.7-3.3-2.6c-0.6-0.5-1.2-0.9-1.7-1.4
			c-0.3-0.3-0.3-0.5-0.2-0.8c1.8,1.3,3.4,2.8,5.3,4.2c0-0.4,0-0.7-0.1-1c0-0.3-0.1-0.5-0.4-0.7c-0.3-0.2-0.6-0.5-1-0.8
			c-1.2-0.9-2.3-1.9-3.5-2.8c-0.4-0.3-0.5-0.6-0.4-1c0-0.1,0,0,0.1,0c0.1,0.1,0.3,0.2,0.4,0.4c1.2,1,2.4,2,3.7,2.9
			c0.2,0.2,0.5,0.4,0.7,0.5c0.1,0.1,0.1,0.1,0.2,0.1c0.1-0.1,0.1-0.2,0-0.2c0-0.2-0.1-0.5-0.1-0.7c0-0.3-0.1-0.4-0.4-0.6
			c-0.9-0.7-1.8-1.4-2.6-2.1c-0.5-0.4-1.1-0.9-1.6-1.3c-0.4-0.3-0.6-0.6-0.5-1.1c0.5,0.6,1.1,0.9,1.6,1.3c0.5,0.5,1.1,0.9,1.7,1.3
			c0.6,0.4,1,0.9,1.7,1.3c0.1-0.5-0.1-0.9-0.1-1.2c0-0.1-0.1-0.2-0.2-0.3c-0.1-0.1-0.2-0.1-0.3-0.2c-1.4-1.1-2.7-2.2-4.1-3.3
			c-0.4-0.3-0.5-0.4-0.3-1c0.2,0.1,0.3,0.3,0.4,0.4c1.3,1,2.5,2,3.8,3.1c0.1,0.1,0.2,0.2,0.3,0.2c0.1,0.1,0.2,0,0.2-0.1
			c0-0.3-0.1-0.6-0.1-1c0-0.2-0.1-0.3-0.2-0.4c-1.4-1.1-2.7-2.2-4.1-3.3c-0.4-0.3-0.6-0.6-0.4-1.1c0,0,0,0,0.1,0
			c0.3,0.2,0.5,0.5,0.8,0.7c0.9,0.8,1.8,1.5,2.8,2.2c0.2,0.2,0.4,0.4,0.7,0.5c0.2,0.1,0.3,0.1,0.3-0.1c0-0.3,0-0.6,0-0.9
			c0-0.2-0.1-0.3-0.3-0.5c-0.2-0.2-0.4-0.3-0.7-0.5c-1.7-1.4-3.5-2.8-5.2-4.2c-0.1-0.1-0.1-0.1-0.3,0c0,0.2,0,0.3,0,0.5
			c0,3.7,0,7.4,0.1,11.1c0.1,4.3,0,8.5,0,12.8c0,0.7,0,1.3,0,2c-0.1,0.2,0,0.4,0,0.5c0,1.8,0,3.7,0,5.5c0,4.3,0,8.6,0,13
			c0,0.2,0,0.3,0,0.5c-0.1,0.2,0,0.4,0,0.6c0,0.1,0,0.2-0.2,0.2c-0.3,0-0.7,0.1-0.9,0c-0.2-0.1-0.1-0.5-0.1-0.7c0,0,0-0.1,0-0.1
			c0-0.3,0.1-0.5,0.1-0.8c0-1.9,0-3.9,0.1-5.8c0.1-2.5,0-4.9,0.1-7.4c0.1-1.9,0-3.7,0.1-5.6c0-0.4,0-0.8,0-1.2c0-0.1,0-0.2,0-0.3
			c0-1.9,0-3.9,0.1-5.8c0.1-2,0-3.9,0.1-5.9c0.1-2.9,0.1-5.9,0.1-8.8c0-1.3,0-2.7,0.1-4c0-0.1,0.1-0.3-0.1-0.4
			c-0.3,0.3-0.7,0.5-1,0.8c-1.7,1.4-3.5,2.7-5.2,4.1c-0.2,0.2-0.3,0.3-0.3,0.6c0,0.5-0.1,0.9-0.1,1.4c-0.1,1.2-0.2,2.3-0.3,3.5
			c-0.1,1.6-0.3,3.2-0.4,4.8c-0.1,0.5,0,1.1-0.2,1.6c0,0.1,0,0.1,0,0.2c0,0.7-0.1,1.4-0.2,2c-0.1,1.6-0.3,3.2-0.4,4.8
			c0,0.5-0.1,1-0.1,1.5c-0.1,0.3-0.1,0.5-0.1,0.8c-0.1,0.5-0.1,1.1-0.2,1.6c0,0.1,0,0.1,0,0.2c0,0.9-0.1,1.7-0.2,2.6
			c-0.1,1.1-0.2,2.3-0.3,3.4c-0.1,0.8-0.1,1.7-0.2,2.6c-0.1,1.2-0.2,2.4-0.3,3.5c-0.1,1.1-0.2,2.2-0.3,3.4c0,0.4,0,0.8-0.1,1.2
			c0,0.1,0,0.1,0,0.2c0.1,0.4-0.1,0.9-0.1,1.3c0,0.3-0.1,0.7-0.1,1c0,0.2-0.2,0.3-0.4,0.3c-0.2,0-0.2-0.2-0.2-0.3c0-0.3,0-0.6,0-0.9
			c0-0.1,0-0.2,0-0.4c0.1-1,0.1-1.9,0.2-2.9c0.1-2,0.3-3.9,0.4-5.9c0-0.6,0.1-1.1,0.1-1.7c0-0.8,0.2-1.5,0.1-2.3
			c0.1-0.6,0.1-1.1,0.2-1.7c0.1-1,0.1-2.1,0.2-3.1c0.1-0.6,0-1.1,0.2-1.7c-0.1-0.1-0.1-0.1,0-0.2c0-0.3,0-0.5,0-0.8
			c0.1-1,0.2-2,0.2-3c0-0.1,0-0.3,0-0.4c0-0.2-0.1-0.2-0.3-0.1c-0.1,0-0.1,0.1-0.1,0.1c-1.5,1-3,2.1-4.5,3c-0.6,0.4-0.8,0.8-0.8,1.4
			c0,0.2-0.1,0.4,0,0.6c1.5-1,3-2,4.5-3c0.1,0.4,0,0.7-0.4,0.9c-0.1,0.1-0.2,0.2-0.4,0.3c-1.2,0.9-2.5,1.7-3.7,2.6
			c-0.1,0.1-0.2,0.1-0.2,0.2c-0.1,0.4-0.2,0.9-0.2,1.4c0.9-0.6,1.7-1.2,2.5-1.7c0.6-0.4,1.3-0.9,1.9-1.3c0.2-0.1,0.3-0.1,0.3,0.2
			c0,0.3-0.2,0.5-0.4,0.7c-0.8,0.5-1.5,1.1-2.3,1.6c-0.6,0.4-1.3,0.9-1.9,1.3c-0.2,0.1-0.3,0.2-0.3,0.5c0,0.3-0.1,0.6-0.1,1h0.2
			c0.3-0.1,0.4-0.3,0.7-0.5c1-0.7,2.1-1.4,3.1-2.1c0.3-0.2,0.6-0.4,1-0.7c0,0.4-0.1,0.8-0.4,1c-0.7,0.5-1.4,0.9-2.1,1.4
			c-0.4,0.3-0.8,0.4-1,0.8c-0.4,0-0.6,0.4-0.9,0.5c-0.5,0.2-0.8,0.6-0.8,1.1c0,0.2-0.1,0.4,0,0.6c0.1-0.1,0.2-0.1,0.3-0.2
			c0.5-0.4,1.1-0.7,1.6-1.1c0.4-0.3,0.8-0.5,1.1-0.8c0.6-0.4,1.2-0.7,1.8-1.2c0.1,0,0.1-0.1,0.2-0.1c0.1,0,0.1,0.1,0.1,0.2
			c0,0.4-0.1,0.6-0.5,0.8c-0.1,0.1-0.2,0-0.3,0.2c0,0-0.1,0.1-0.1,0.1c-0.1,0-0.2,0-0.2,0.1c0,0-0.1,0.1-0.1,0.1
			c-0.4,0.2-0.7,0.5-1.1,0.7c0,0-0.1,0.1-0.1,0.1c-0.1,0-0.2,0-0.2,0.1c-0.9,0.6-1.8,1.2-2.7,1.8c-0.1,0-0.2,0.1-0.2,0.2
			c-0.1,0.4-0.1,0.8-0.2,1.3c0.2,0,0.3-0.1,0.4-0.2c0.9-0.6,1.9-1.3,2.8-2c0.3-0.2,0.7-0.5,1-0.7c0.2-0.1,0.4-0.3,0.6-0.4
			c0.3-0.2,0.3-0.2,0.4,0.2c-0.1,0.1-0.1,0.3-0.3,0.4c-0.6,0.4-1.2,0.8-1.8,1.2c-1,0.7-2.1,1.4-3.1,2.1c-0.1,0.1-0.3,0.2-0.3,0.3
			c-0.1,0.3-0.1,0.6-0.1,0.9c0,0.1,0,0.2,0.1,0.2c0.1,0,0.1,0,0.2-0.1c1.2-0.8,2.3-1.6,3.5-2.4c0.5-0.4,1-0.8,1.6-1
			c0,0,0.1-0.1,0.1,0c0.1,0.4-0.1,0.6-0.4,0.8c-0.5,0.3-1,0.7-1.5,1c-1.2,0.8-2.3,1.6-3.5,2.4c-0.1,0.1-0.3,0.2-0.3,0.4
			c0,0.4-0.1,0.8-0.3,1.2c0.4-0.1,0.6-0.4,0.9-0.6c1.1-0.7,2.2-1.5,3.3-2.2c0.5-0.3,0.9-0.7,1.4-0.9c0.1-0.1,0.1-0.2,0.2,0
			c0,0.3-0.1,0.5-0.3,0.7c-1,0.6-1.9,1.3-2.9,2c-0.8,0.5-1.6,1.1-2.4,1.6c-0.1,0.1-0.2,0.1-0.2,0.2C34.1,58.1,34,58.5,34,59
			c0.1,0,0.2,0,0.3-0.1c0.4-0.3,0.8-0.6,1.2-0.9c1.3-0.9,2.5-1.8,3.8-2.6c0.1-0.1,0.2-0.3,0.4-0.2c0.1,0.1,0,0.3-0.1,0.5
			c0,0.1-0.2,0.2-0.3,0.3c-1,0.7-2,1.4-3,2c-0.8,0.6-1.7,1.1-2.5,1.7c-0.1,0.1-0.2,0.1-0.2,0.2c0,0.4-0.1,0.7-0.1,1.1
			c0,0.1,0.1,0.1,0.2,0.1c0.1,0,0.1-0.1,0.2-0.1c0.7-0.5,1.5-1,2.2-1.5c1-0.7,2.1-1.5,3.2-2.1c0,0,0.1-0.1,0.1-0.1c0,0,0.1,0,0.1,0
			c0,0,0,0.1,0,0.1c0.1,0.4-0.1,0.6-0.4,0.8c-0.5,0.3-1,0.7-1.5,1c-1.3,0.9-2.5,1.7-3.8,2.6c-0.3,0.2-0.5,0.4-0.5,0.7
			c-0.1,0.3-0.1,0.6-0.1,0.9c0.2,0,0.4-0.1,0.5-0.2c1.2-0.8,2.5-1.7,3.7-2.5c0.6-0.4,1.1-0.8,1.7-1.1c0,0,0.1-0.1,0.1-0.1
			c0,0,0.1,0,0.1,0c0,0,0,0.1,0,0.1c0,0.2,0,0.5-0.2,0.6c-1,0.7-2,1.3-3,2c-0.1,0.1-0.3,0.1-0.4,0.3c-0.1,0-0.1,0-0.2,0.1
			c-0.9,0.6-1.7,1.2-2.6,1.8c-0.1,0.1-0.2,0.2-0.4,0.2c-1.8,0.2-3.5,0.4-5.3,0.7c-3.3,0.5-6.5,1.2-9.7,2c-2.7,0.7-5.3,1.5-7.9,2.5
			C8.9,70,8,70.3,7.2,70.8c0,0,0,0.1,0,0.1c1.2-0.3,2.4-0.7,3.6-1c1-0.2,1.9-0.5,2.9-0.7c4.3-1,8.6-1.7,12.9-2.3
			c2.6-0.3,5.1-0.6,7.7-0.8c0.5,0,1.1-0.1,1.6-0.1c0.1-0.1,0.1-0.1,0.2,0c0.1-0.1,0.2-0.1,0.3-0.1c1-0.1,2-0.1,3-0.2
			c1.9-0.1,3.8-0.2,5.7-0.3c2.1-0.1,4.1-0.1,6.2-0.1c1.3,0,2.6,0,3.9,0.1c0.3-0.1,0.5-0.1,0.8,0c1.4,0,2.8,0.1,4.3,0.1
			c1.9,0.1,3.7,0.2,5.6,0.3c1.4,0.1,2.8,0.2,4.1,0.3c0.4,0,0.8,0,1.1,0.1c0.1,0,0.2,0,0.4,0c0.5,0.1,0.9,0,1.4,0.2
			c0.1,0,0.2,0,0.3,0c0.2,0,0.4,0,0.6,0.1c0.2,0,0.3,0,0.5,0.1c0.1,0,0.2,0,0.4,0c0.1,0,0.2,0,0.4,0c0.1,0,0.1,0,0.2,0
			c1.1,0.1,2.3,0.3,3.4,0.4c1.6,0.2,3.3,0.5,4.9,0.8c2.5,0.4,5,1,7.5,1.5c1.4,0.3,2.8,0.7,4.2,1.1C95.3,70.7,95.5,70.9,95.8,70.8
			C95.8,70.8,95.8,70.8,95.8,70.8z M54.7,53L54.7,53L54.7,53L54.7,53z M54.2,29.9C54.2,29.9,54.2,29.9,54.2,29.9
			C54.2,30,54.2,30,54.2,29.9C54.2,30,54.2,30,54.2,29.9C54.2,29.9,54.2,29.9,54.2,29.9z M40.3,48.9L40.3,48.9L40.3,48.9L40.3,48.9z
			 M38.5,63.8c0.1-0.2,0.3-0.2,0.4-0.3C39,63.9,39,63.9,38.5,63.8z M50.9,17.9c0.1,0.8,0.1,0.9-0.5,1.1
			C50.3,18.3,50.3,18.3,50.9,17.9z M46.8,21.9c-0.1-0.4-0.1-0.7,0.3-1c0.1-0.1,0.2-0.1,0.3,0C47.5,21.3,47.2,21.7,46.8,21.9z
			 M48,22.7c-0.2-0.6,0-0.9,0.4-1.1C48.6,22.3,48.6,22.3,48,22.7z M48,20.9c-0.2-0.7-0.1-0.8,0.5-1C48.6,20.6,48.6,20.7,48,20.9z
			 M49.1,25.3c-0.1-0.7-0.1-0.8,0.5-1.1C49.7,24.7,49.8,25,49.1,25.3z M49.2,23.5c-0.2-0.5-0.1-0.8,0.5-1.1
			C49.8,22.9,49.7,23.3,49.2,23.5z M49.2,21.8c-0.1-0.7-0.1-0.8,0.4-1.1C49.8,21.2,49.7,21.4,49.2,21.8z M49.2,20
			c-0.2-0.7,0-0.9,0.5-1.1C49.8,19.7,49.8,19.6,49.2,20z M50.4,24.3c-0.2-0.6-0.2-0.7,0.5-1.1C51,23.9,51,23.9,50.4,24.3z
			 M50.9,21.4c0.2,0.8,0,0.9-0.5,1.1C50.3,21.8,50.3,21.7,50.9,21.4z M50.4,20.8c-0.2-0.5,0-0.9,0.5-1.1
			C51.1,20.2,51,20.4,50.4,20.8z M61.1,32c0.6,0.1,0.5,0.5,0.6,0.9C61.2,32.8,61.1,32.7,61.1,32z M61.2,33.5c0.6,0.2,0.8,0.5,0.6,1
			C61.3,34.4,61.3,33.9,61.2,33.5z M62.3,37.6c-0.5-0.2-0.6-0.5-0.6-1C62.2,36.8,62.3,37.2,62.3,37.6z M62.2,32.9
			c0.5,0.1,0.7,0.3,0.6,0.9C62.3,33.6,62.2,33.3,62.2,32.9z M62.5,34.4c0.4,0.2,0.5,0.5,0.6,1C62.4,35.1,62.4,35.1,62.5,34.4z
			 M63.5,38.5c-0.5-0.2-0.6-0.5-0.6-1C63.4,37.7,63.5,37.8,63.5,38.5z M63.4,33.7c0.6,0.3,0.7,0.4,0.5,1
			C63.4,34.5,63.3,34.2,63.4,33.7z M64.2,36.2c-0.5-0.1-0.6-0.3-0.6-0.9C64.1,35.4,64.3,35.7,64.2,36.2z M64.6,34.6
			c0.5,0.1,0.6,0.5,0.6,0.9C64.6,35.3,64.5,35.2,64.6,34.6z"/>
		<g>
			<linearGradient id="SVGID_2_" gradientUnits="userSpaceOnUse" x1="50.8883" y1="-10.8871" x2="54.9793" y2="57.7169">
				<stop  offset="0" style="stop-color:#005D99"/>
				<stop  offset="0.1668" style="stop-color:#03629D"/>
				<stop  offset="0.3746" style="stop-color:#0C72AA"/>
				<stop  offset="0.6041" style="stop-color:#1C8BBF"/>
				<stop  offset="0.8475" style="stop-color:#31AEDC"/>
				<stop  offset="1" style="stop-color:#40C8F2"/>
			</linearGradient>
			<path class="st9" d="M89.9,39.4c0,4.3-0.7,8.4-2.1,12.2c-0.5,1.3-1,2.6-1.6,3.8c0.5-1.2,1-2.5,1.4-3.8c1-3.2,1.5-6.7,1.5-10.3
				c0-19.4-15.8-35.2-35.2-35.2c-19.4,0-35.2,15.8-35.2,35.2c0,3.6,0.5,7,1.5,10.3c0.4,1.3,0.9,2.6,1.4,3.8
				c-0.6-1.2-1.2-2.5-1.6-3.8c-1.4-3.8-2.1-7.9-2.1-12.2c0-19.9,16.1-36,36-36C73.8,3.4,89.9,19.5,89.9,39.4z"/>
		</g>
	</g>
	<text transform="matrix(1 0 0 1 106.3955 64.6698)" class="st10 st11 st12">ĐI CÙNG ĐỂ THÀNH CÔNG</text>
</g>
</svg>
